<svg width="140" height="140" viewBox="0 0 140 140" fill="none" xmlns="http://www.w3.org/2000/svg">
<path d="M45.8318 83.1732C61.31 112.886 83.2184 132.097 94.7657 126.082L103.679 121.439L101.012 116.319C103.616 104.016 98.853 82.8997 87.6482 61.3902C76.4435 39.8807 61.8691 23.8748 50.2948 18.958L47.6278 13.8382L38.7144 18.4813C27.1671 24.4965 30.3537 53.4601 45.8318 83.1732Z" fill="#7B60E8"/>
<ellipse cx="74.8206" cy="68.0727" rx="60.6623" ry="23.5749" transform="rotate(62.4841 74.8206 68.0727)" fill="#A4A8FC" stroke="#110D14" stroke-width="1.02578"/>
<ellipse cx="74.8207" cy="68.0726" rx="56.3192" ry="19.6299" transform="rotate(62.4841 74.8207 68.0726)" fill="#A4A8FC" stroke="#110D14" stroke-width="1.02578"/>
<path d="M72.7228 74.8462C72.9275 75.3317 73.1382 76.1283 72.4365 76.2673C72.4905 76.3035 70.6316 76.6189 70.6316 76.6189L72.469 81.1826L75.6997 80.5518C76.3014 80.4355 76.901 80.3353 77.4846 80.2276L80.7284 86.443L83.2087 85.9595L80.0001 79.8095C80.692 79.6977 81.3552 79.5773 81.9981 79.4508L85.1907 85.5726L87.6731 85.0875L84.4368 78.8828C88.4222 77.7071 90.5168 75.5524 87.7984 69.5757C85.6103 64.763 83.0186 62.9308 80.2021 62.5361C81.0653 61.1507 80.95 59.0292 79.0481 55.8282C76.4539 51.4528 73.1408 50.463 69.7155 50.6655L66.5091 44.5198L64.0267 45.0049L67.1487 50.9886C66.4961 51.1161 65.8391 51.2658 65.1867 51.415L62.0446 45.3916L59.5633 45.8759L62.7678 52.02C62.2389 52.1415 61.7189 52.2595 61.2045 52.3606L61.1942 52.3415L57.7692 53.0083L59.8543 57.0035C59.8543 57.0035 61.6601 56.5929 61.6561 56.6497C62.662 56.4539 63.4481 57.2696 63.9394 58.0101L72.7228 74.8462ZM82.5087 69.7968C84.9334 74.4415 79.3795 74.9436 77.6983 75.2745L73.4025 67.039C75.0857 66.7111 79.9812 64.9519 82.5087 69.7968ZM75.2923 58.4033C77.4963 62.6295 72.8371 62.9957 71.4357 63.2695L67.5391 55.8003C68.9405 55.5265 72.9924 53.9955 75.2923 58.4033Z" fill="#7B60E8"/>
</svg>
