<svg width="1126" height="392" viewBox="0 0 1126 392" fill="none" xmlns="http://www.w3.org/2000/svg">
<path d="M2.43 391V385.2L1.3 385.46V384.68L2.85 384H3.53V391H2.43ZM7.39219 391.12C6.89885 391.12 6.47219 391.033 6.11219 390.86C5.75219 390.68 5.46552 390.437 5.25219 390.13C5.04552 389.817 4.91885 389.463 4.87219 389.07H5.91219C5.97885 389.403 6.14552 389.68 6.41219 389.9C6.67885 390.113 7.00885 390.22 7.40219 390.22C7.69552 390.22 7.94885 390.15 8.16219 390.01C8.37552 389.863 8.54219 389.67 8.66219 389.43C8.78219 389.19 8.84219 388.92 8.84219 388.62C8.84219 388.147 8.70885 387.77 8.44219 387.49C8.17552 387.203 7.83885 387.06 7.43219 387.06C7.08552 387.06 6.78885 387.143 6.54219 387.31C6.29552 387.47 6.11552 387.673 6.00219 387.92H4.99219L5.59219 384H9.37219V384.93H6.39219L6.03219 386.8C6.18552 386.627 6.39552 386.483 6.66219 386.37C6.93552 386.25 7.24219 386.19 7.58219 386.19C8.05552 386.19 8.46219 386.3 8.80219 386.52C9.14219 386.733 9.40219 387.023 9.58219 387.39C9.76885 387.757 9.86219 388.163 9.86219 388.61C9.86219 389.077 9.76219 389.5 9.56219 389.88C9.36219 390.26 9.07552 390.563 8.70219 390.79C8.33552 391.01 7.89885 391.12 7.39219 391.12Z" fill="#868897"/>
<path d="M1.25 34L1.25001 374" stroke="#343240" stroke-linecap="round"/>
<path d="M184.983 391V385.2L183.853 385.46V384.68L185.403 384H186.083V391H184.983ZM190.075 391.12C189.562 391.12 189.129 391.023 188.775 390.83C188.422 390.637 188.135 390.38 187.915 390.06C187.702 389.74 187.549 389.38 187.455 388.98C187.362 388.58 187.315 388.17 187.315 387.75C187.315 386.977 187.422 386.3 187.635 385.72C187.855 385.14 188.169 384.69 188.575 384.37C188.982 384.043 189.475 383.88 190.055 383.88C190.515 383.88 190.909 383.97 191.235 384.15C191.562 384.33 191.815 384.57 191.995 384.87C192.182 385.17 192.295 385.497 192.335 385.85H191.345C191.285 385.503 191.142 385.237 190.915 385.05C190.689 384.863 190.399 384.77 190.045 384.77C189.559 384.77 189.155 385 188.835 385.46C188.522 385.913 188.355 386.613 188.335 387.56C188.495 387.267 188.742 387.017 189.075 386.81C189.415 386.603 189.805 386.5 190.245 386.5C190.639 386.5 191.005 386.593 191.345 386.78C191.692 386.967 191.972 387.23 192.185 387.57C192.405 387.903 192.515 388.3 192.515 388.76C192.515 389.167 192.415 389.55 192.215 389.91C192.015 390.27 191.732 390.563 191.365 390.79C191.005 391.01 190.575 391.12 190.075 391.12ZM190.015 390.2C190.295 390.2 190.545 390.14 190.765 390.02C190.985 389.9 191.159 389.737 191.285 389.53C191.412 389.317 191.475 389.077 191.475 388.81C191.475 388.383 191.335 388.043 191.055 387.79C190.782 387.537 190.432 387.41 190.005 387.41C189.725 387.41 189.472 387.473 189.245 387.6C189.025 387.727 188.852 387.897 188.725 388.11C188.599 388.317 188.535 388.547 188.535 388.8C188.535 389.073 188.599 389.317 188.725 389.53C188.859 389.737 189.035 389.9 189.255 390.02C189.482 390.14 189.735 390.2 190.015 390.2Z" fill="#868897"/>
<path d="M188.583 34L188.584 374" stroke="#343240" stroke-linecap="round" stroke-dasharray="5 5"/>
<path d="M373.305 391V385.2L372.175 385.46V384.68L373.725 384H374.405V391H373.305ZM376.317 391L379.027 384.91H375.387V384H380.117V384.77L377.427 391H376.317Z" fill="#868897"/>
<path d="M375.917 34L375.917 374" stroke="#343240" stroke-linecap="round" stroke-dasharray="5 5"/>
<path d="M559.708 391V385.2L558.578 385.46V384.68L560.128 384H560.808V391H559.708ZM564.621 391.12C564.154 391.12 563.731 391.037 563.351 390.87C562.977 390.697 562.677 390.457 562.451 390.15C562.231 389.843 562.121 389.483 562.121 389.07C562.121 388.65 562.237 388.273 562.471 387.94C562.711 387.607 563.027 387.38 563.421 387.26C563.067 387.12 562.794 386.917 562.601 386.65C562.407 386.377 562.311 386.077 562.311 385.75C562.311 385.41 562.401 385.1 562.581 384.82C562.761 384.533 563.021 384.307 563.361 384.14C563.707 383.967 564.127 383.88 564.621 383.88C565.114 383.88 565.531 383.967 565.871 384.14C566.217 384.307 566.481 384.533 566.661 384.82C566.841 385.1 566.931 385.41 566.931 385.75C566.931 386.07 566.831 386.37 566.631 386.65C566.437 386.923 566.164 387.127 565.811 387.26C566.204 387.387 566.517 387.617 566.751 387.95C566.991 388.277 567.111 388.65 567.111 389.07C567.111 389.483 567.001 389.843 566.781 390.15C566.561 390.457 566.261 390.697 565.881 390.87C565.507 391.037 565.087 391.12 564.621 391.12ZM564.621 386.92C565.007 386.92 565.311 386.82 565.531 386.62C565.757 386.42 565.871 386.163 565.871 385.85C565.871 385.497 565.761 385.227 565.541 385.04C565.321 384.853 565.014 384.76 564.621 384.76C564.227 384.76 563.921 384.853 563.701 385.04C563.481 385.227 563.371 385.497 563.371 385.85C563.371 386.163 563.481 386.42 563.701 386.62C563.921 386.82 564.227 386.92 564.621 386.92ZM564.621 390.22C565.101 390.22 565.461 390.107 565.701 389.88C565.941 389.647 566.061 389.35 566.061 388.99C566.061 388.59 565.931 388.283 565.671 388.07C565.417 387.85 565.067 387.74 564.621 387.74C564.174 387.74 563.821 387.85 563.561 388.07C563.301 388.283 563.171 388.59 563.171 388.99C563.171 389.35 563.291 389.647 563.531 389.88C563.777 390.107 564.141 390.22 564.621 390.22Z" fill="#868897"/>
<path d="M563.25 34L563.25 374" stroke="#343240" stroke-linecap="round" stroke-dasharray="5 5"/>
<path d="M746.983 391V385.2L745.853 385.46V384.68L747.403 384H748.083V391H746.983ZM751.855 391.12C751.395 391.12 751.002 391.03 750.675 390.85C750.348 390.67 750.092 390.43 749.905 390.13C749.725 389.83 749.615 389.503 749.575 389.15H750.565C750.625 389.497 750.768 389.763 750.995 389.95C751.222 390.137 751.512 390.23 751.865 390.23C752.352 390.23 752.752 390.003 753.065 389.55C753.385 389.09 753.555 388.387 753.575 387.44C753.415 387.733 753.165 387.983 752.825 388.19C752.492 388.397 752.105 388.5 751.665 388.5C751.272 388.5 750.902 388.407 750.555 388.22C750.208 388.033 749.928 387.773 749.715 387.44C749.502 387.1 749.395 386.7 749.395 386.24C749.395 385.833 749.495 385.45 749.695 385.09C749.895 384.73 750.175 384.44 750.535 384.22C750.902 383.993 751.335 383.88 751.835 383.88C752.348 383.88 752.782 383.977 753.135 384.17C753.488 384.363 753.772 384.62 753.985 384.94C754.198 385.26 754.352 385.62 754.445 386.02C754.545 386.42 754.595 386.83 754.595 387.25C754.595 388.023 754.485 388.7 754.265 389.28C754.052 389.86 753.742 390.313 753.335 390.64C752.928 390.96 752.435 391.12 751.855 391.12ZM751.905 387.59C752.185 387.59 752.435 387.527 752.655 387.4C752.875 387.273 753.048 387.107 753.175 386.9C753.308 386.687 753.375 386.453 753.375 386.2C753.375 385.927 753.308 385.687 753.175 385.48C753.048 385.267 752.872 385.1 752.645 384.98C752.425 384.86 752.175 384.8 751.895 384.8C751.615 384.8 751.365 384.86 751.145 384.98C750.925 385.1 750.748 385.267 750.615 385.48C750.488 385.687 750.425 385.923 750.425 386.19C750.425 386.617 750.565 386.957 750.845 387.21C751.125 387.463 751.478 387.59 751.905 387.59Z" fill="#868897"/>
<path d="M750.583 34L750.583 374" stroke="#343240" stroke-linecap="round" stroke-dasharray="5 5"/>
<path d="M932.403 391V390.24C932.857 389.88 933.29 389.517 933.703 389.15C934.117 388.783 934.483 388.423 934.803 388.07C935.13 387.71 935.387 387.36 935.573 387.02C935.76 386.673 935.853 386.34 935.853 386.02C935.853 385.807 935.817 385.607 935.743 385.42C935.67 385.227 935.55 385.073 935.383 384.96C935.217 384.84 934.993 384.78 934.713 384.78C934.293 384.78 933.977 384.913 933.763 385.18C933.557 385.447 933.457 385.767 933.463 386.14H932.433C932.44 385.647 932.543 385.233 932.743 384.9C932.95 384.567 933.223 384.313 933.563 384.14C933.91 383.967 934.3 383.88 934.733 383.88C935.393 383.88 935.92 384.067 936.313 384.44C936.713 384.807 936.913 385.32 936.913 385.98C936.913 386.373 936.817 386.763 936.623 387.15C936.437 387.537 936.19 387.91 935.883 388.27C935.583 388.623 935.26 388.957 934.913 389.27C934.567 389.583 934.237 389.867 933.923 390.12H937.123V391H932.403ZM940.988 391.12C940.355 391.12 939.808 390.97 939.348 390.67C938.895 390.363 938.545 389.94 938.298 389.4C938.058 388.853 937.938 388.22 937.938 387.5C937.938 386.78 938.058 386.15 938.298 385.61C938.545 385.063 938.895 384.64 939.348 384.34C939.808 384.033 940.355 383.88 940.988 383.88C941.621 383.88 942.165 384.033 942.618 384.34C943.071 384.64 943.418 385.063 943.658 385.61C943.905 386.15 944.028 386.78 944.028 387.5C944.028 388.22 943.905 388.853 943.658 389.4C943.418 389.94 943.071 390.363 942.618 390.67C942.165 390.97 941.621 391.12 940.988 391.12ZM940.988 390.17C941.368 390.17 941.705 390.063 941.998 389.85C942.298 389.637 942.531 389.33 942.698 388.93C942.865 388.53 942.948 388.053 942.948 387.5C942.948 386.947 942.865 386.47 942.698 386.07C942.531 385.67 942.298 385.363 941.998 385.15C941.705 384.937 941.368 384.83 940.988 384.83C940.601 384.83 940.261 384.937 939.968 385.15C939.675 385.363 939.445 385.67 939.278 386.07C939.111 386.47 939.028 386.947 939.028 387.5C939.028 388.053 939.111 388.53 939.278 388.93C939.445 389.33 939.675 389.637 939.968 389.85C940.261 390.063 940.601 390.17 940.988 390.17Z" fill="#868897"/>
<path d="M937.917 34L937.917 374" stroke="#343240" stroke-linecap="round" stroke-dasharray="5 5"/>
<path d="M1116.61 391V390.24C1117.06 389.88 1117.49 389.517 1117.91 389.15C1118.32 388.783 1118.69 388.423 1119.01 388.07C1119.33 387.71 1119.59 387.36 1119.78 387.02C1119.96 386.673 1120.06 386.34 1120.06 386.02C1120.06 385.807 1120.02 385.607 1119.95 385.42C1119.87 385.227 1119.75 385.073 1119.59 384.96C1119.42 384.84 1119.2 384.78 1118.92 384.78C1118.5 384.78 1118.18 384.913 1117.97 385.18C1117.76 385.447 1117.66 385.767 1117.67 386.14H1116.64C1116.64 385.647 1116.75 385.233 1116.95 384.9C1117.15 384.567 1117.43 384.313 1117.77 384.14C1118.11 383.967 1118.5 383.88 1118.94 383.88C1119.6 383.88 1120.12 384.067 1120.52 384.44C1120.92 384.807 1121.12 385.32 1121.12 385.98C1121.12 386.373 1121.02 386.763 1120.83 387.15C1120.64 387.537 1120.39 387.91 1120.09 388.27C1119.79 388.623 1119.46 388.957 1119.12 389.27C1118.77 389.583 1118.44 389.867 1118.13 390.12H1121.33V391H1116.61ZM1123.19 391V385.2L1122.06 385.46V384.68L1123.61 384H1124.29V391H1123.19Z" fill="#868897"/>
<path d="M1125.25 34L1125.25 374" stroke="#343240" stroke-linecap="round" stroke-dasharray="5 5"/>
<line x1="1.5" y1="33.5" x2="1124.5" y2="33.5" stroke="#343240" stroke-linecap="round"/>
<line x1="1.5" y1="90.1667" x2="1124.5" y2="90.1667" stroke="#343240" stroke-linecap="round"/>
<line x1="1.5" y1="146.833" x2="1124.5" y2="146.833" stroke="#343240" stroke-linecap="round"/>
<line x1="1.5" y1="203.5" x2="1124.5" y2="203.5" stroke="#343240" stroke-linecap="round"/>
<line x1="1.5" y1="260.167" x2="1124.5" y2="260.167" stroke="#343240" stroke-linecap="round"/>
<line x1="1.5" y1="316.833" x2="1124.5" y2="316.833" stroke="#343240" stroke-linecap="round"/>
<line x1="1.5" y1="373.5" x2="1124.5" y2="373.5" stroke="#343240" stroke-linecap="round"/>
<g clip-path="url(#clip0_2001_222)">
<path d="M1 374C16.2958 361.821 59.8299 355.887 92.7746 355.887C125.719 355.887 141.015 332.466 163.37 332.466C185.726 332.466 206.905 340.585 224.554 340.585C242.203 340.585 258.675 317.164 279.854 317.164C301.032 317.164 315.152 304.985 342.213 304.985C369.275 304.985 392.807 319.974 432.811 319.974C472.816 319.974 473.992 307.795 506.937 307.795C539.882 307.795 533.999 282.5 578.71 282.5C623.42 282.5 633.508 250.647 658.718 250.647C683.928 250.647 689.31 271.882 722.254 271.882C755.199 271.882 751.669 282.5 791.674 282.5C831.678 282.5 825.795 263.138 862.27 263.138C877.059 263.138 886.978 239.404 921.099 239.404C955.221 239.404 980.014 215.983 1015.23 215.983C1050.44 215.983 1058.76 191 1131.71 191" stroke="#FF7500" stroke-width="2"/>
<path d="M1 374C48.1129 364.67 54.0364 319.266 86.9811 319.266C119.926 319.266 141.015 283.814 163.37 283.814C185.726 283.814 206.905 234.979 224.554 234.979C242.203 234.979 258.675 272.618 279.854 272.618C301.032 272.618 315.152 250.849 342.213 250.849C369.275 250.849 399.383 191.762 432.811 191.762C466.24 191.762 485.209 213.531 506.937 213.531C528.665 213.531 533.999 181.188 578.71 181.188C623.42 181.188 633.508 161.907 658.718 161.907C683.928 161.907 696.769 110.905 722.254 110.905C747.74 110.905 769.649 199.847 791.674 199.847C813.698 199.847 825.795 131.43 862.27 131.43C898.744 131.43 871.85 88.514 921.099 88.514C970.349 88.514 963.524 126.454 1015.23 126.454C1066.93 126.454 1115.22 77.9404 1131.71 40" stroke="#9CE76E" stroke-width="2"/>
<path d="M1 374C12.7782 350.354 54.0364 363.866 86.9811 363.866C119.926 363.866 144.356 353.732 163.37 353.732C182.385 353.732 193.697 359.567 224.554 359.567C255.41 359.567 245.406 348.205 279.854 348.205C314.301 348.205 315.152 338.071 342.213 338.071C369.275 338.071 399.383 311.047 432.811 311.047C466.24 311.047 473.431 323.945 506.937 323.945C540.443 323.945 558.085 303.37 578.71 303.37C599.334 303.37 639.188 277.268 658.718 277.268C678.248 277.268 702.658 290.165 722.254 290.165C741.851 290.165 741.382 299.992 791.674 299.992C841.966 299.992 845.499 319.953 862.27 319.953C879.04 319.953 895.407 284.945 921.099 284.945C946.792 284.945 946.792 273.689 970.349 273.689C993.905 273.689 1005.8 257 1024.53 257C1043.25 257 1057.51 271.47 1083.42 271.47C1109.33 271.47 1113.35 276.247 1131.71 280.032" stroke="#A4A8FC" stroke-width="2"/>
</g>
<rect x="423.483" y="187" width="10" height="10" rx="5" fill="#9CE76E" stroke="#110D14" stroke-width="2"/>
<rect x="339.983" y="90.5" width="177" height="91" rx="10.5" fill="#221F24"/>
<rect x="339.983" y="90.5" width="177" height="91" rx="10.5" stroke="#343240"/>
<path d="M351.783 109.12C351.15 109.12 350.653 108.943 350.293 108.59C349.933 108.237 349.753 107.747 349.753 107.12H350.603C350.603 107.473 350.69 107.77 350.863 108.01C351.037 108.25 351.34 108.37 351.773 108.37C352.193 108.37 352.483 108.253 352.643 108.02C352.81 107.787 352.893 107.497 352.893 107.15V102H353.733V107.15C353.733 107.77 353.56 108.253 353.213 108.6C352.873 108.947 352.397 109.12 351.783 109.12ZM356.974 109.12C356.387 109.12 355.92 108.943 355.574 108.59C355.227 108.23 355.054 107.68 355.054 106.94V104.04H355.894V106.85C355.894 107.883 356.317 108.4 357.164 108.4C357.597 108.4 357.954 108.247 358.234 107.94C358.52 107.627 358.664 107.183 358.664 106.61V104.04H359.504V109H358.744L358.684 108.11C358.53 108.423 358.3 108.67 357.994 108.85C357.694 109.03 357.354 109.12 356.974 109.12ZM360.886 109V101.8H361.726V109H360.886ZM363.643 111.2L364.873 108.52H364.583L362.613 104.04H363.523L365.163 107.9L366.903 104.04H367.773L364.523 111.2H363.643ZM372.046 109V102.94L370.916 103.19V102.61L372.326 102H372.896V109H372.046ZM374.954 109L377.734 102.72H373.894V102H378.594V102.63L375.844 109H374.954ZM378.488 110.19L379.068 107.98H379.938L379.068 110.19H378.488ZM383.522 109V108.41C383.995 108.037 384.442 107.66 384.862 107.28C385.288 106.893 385.665 106.513 385.992 106.14C386.325 105.767 386.585 105.4 386.772 105.04C386.965 104.68 387.062 104.333 387.062 104C387.062 103.753 387.018 103.523 386.932 103.31C386.852 103.097 386.718 102.927 386.532 102.8C386.345 102.667 386.092 102.6 385.772 102.6C385.465 102.6 385.208 102.67 385.002 102.81C384.795 102.943 384.638 103.123 384.532 103.35C384.432 103.577 384.382 103.82 384.382 104.08H383.572C383.572 103.62 383.668 103.227 383.862 102.9C384.055 102.567 384.318 102.313 384.652 102.14C384.985 101.967 385.362 101.88 385.782 101.88C386.402 101.88 386.908 102.057 387.302 102.41C387.702 102.757 387.902 103.277 387.902 103.97C387.902 104.383 387.798 104.793 387.592 105.2C387.385 105.6 387.122 105.99 386.802 106.37C386.482 106.743 386.138 107.093 385.772 107.42C385.412 107.747 385.075 108.04 384.762 108.3H388.142V109H383.522ZM391.987 109.12C391.367 109.12 390.83 108.97 390.377 108.67C389.93 108.363 389.587 107.94 389.347 107.4C389.107 106.853 388.987 106.22 388.987 105.5C388.987 104.78 389.107 104.15 389.347 103.61C389.587 103.063 389.93 102.64 390.377 102.34C390.83 102.033 391.367 101.88 391.987 101.88C392.607 101.88 393.14 102.033 393.587 102.34C394.033 102.64 394.377 103.063 394.617 103.61C394.857 104.15 394.977 104.78 394.977 105.5C394.977 106.22 394.857 106.853 394.617 107.4C394.377 107.94 394.033 108.363 393.587 108.67C393.14 108.97 392.607 109.12 391.987 109.12ZM391.987 108.38C392.393 108.38 392.757 108.267 393.077 108.04C393.403 107.807 393.657 107.477 393.837 107.05C394.023 106.617 394.117 106.1 394.117 105.5C394.117 104.9 394.023 104.387 393.837 103.96C393.657 103.533 393.403 103.207 393.077 102.98C392.757 102.747 392.393 102.63 391.987 102.63C391.573 102.63 391.207 102.747 390.887 102.98C390.567 103.207 390.313 103.533 390.127 103.96C389.94 104.387 389.847 104.9 389.847 105.5C389.847 106.1 389.94 106.617 390.127 107.05C390.313 107.477 390.567 107.807 390.887 108.04C391.207 108.267 391.573 108.38 391.987 108.38ZM395.983 109V108.41C396.456 108.037 396.903 107.66 397.323 107.28C397.749 106.893 398.126 106.513 398.453 106.14C398.786 105.767 399.046 105.4 399.233 105.04C399.426 104.68 399.523 104.333 399.523 104C399.523 103.753 399.479 103.523 399.393 103.31C399.313 103.097 399.179 102.927 398.993 102.8C398.806 102.667 398.553 102.6 398.233 102.6C397.926 102.6 397.669 102.67 397.463 102.81C397.256 102.943 397.099 103.123 396.993 103.35C396.893 103.577 396.843 103.82 396.843 104.08H396.033C396.033 103.62 396.129 103.227 396.323 102.9C396.516 102.567 396.779 102.313 397.113 102.14C397.446 101.967 397.823 101.88 398.243 101.88C398.863 101.88 399.369 102.057 399.763 102.41C400.163 102.757 400.363 103.277 400.363 103.97C400.363 104.383 400.259 104.793 400.053 105.2C399.846 105.6 399.583 105.99 399.263 106.37C398.943 106.743 398.599 107.093 398.233 107.42C397.873 107.747 397.536 108.04 397.223 108.3H400.603V109H395.983ZM404.819 109V107.5H401.269V106.85L404.669 102H405.649V106.76H406.689V107.5H405.649V109H404.819ZM402.199 106.76H404.859V102.93L402.199 106.76ZM411.95 109.12C411.537 109.12 411.194 109.05 410.92 108.91C410.647 108.77 410.444 108.583 410.31 108.35C410.177 108.117 410.11 107.863 410.11 107.59C410.11 107.083 410.304 106.693 410.69 106.42C411.077 106.147 411.604 106.01 412.27 106.01H413.61V105.95C413.61 105.517 413.497 105.19 413.27 104.97C413.044 104.743 412.74 104.63 412.36 104.63C412.034 104.63 411.75 104.713 411.51 104.88C411.277 105.04 411.13 105.277 411.07 105.59H410.21C410.244 105.23 410.364 104.927 410.57 104.68C410.784 104.433 411.047 104.247 411.36 104.12C411.674 103.987 412.007 103.92 412.36 103.92C413.054 103.92 413.574 104.107 413.92 104.48C414.274 104.847 414.45 105.337 414.45 105.95V109H413.7L413.65 108.11C413.51 108.39 413.304 108.63 413.03 108.83C412.764 109.023 412.404 109.12 411.95 109.12ZM412.08 108.41C412.4 108.41 412.674 108.327 412.9 108.16C413.134 107.993 413.31 107.777 413.43 107.51C413.55 107.243 413.61 106.963 413.61 106.67V106.66H412.34C411.847 106.66 411.497 106.747 411.29 106.92C411.09 107.087 410.99 107.297 410.99 107.55C410.99 107.81 411.084 108.02 411.27 108.18C411.464 108.333 411.734 108.41 412.08 108.41ZM417.534 109C417.08 109 416.724 108.89 416.464 108.67C416.204 108.45 416.074 108.053 416.074 107.48V104.75H415.214V104.04H416.074L416.184 102.85H416.914V104.04H418.374V104.75H416.914V107.48C416.914 107.793 416.977 108.007 417.104 108.12C417.23 108.227 417.454 108.28 417.774 108.28H418.294V109H417.534ZM422.027 109V108.41C422.501 108.037 422.947 107.66 423.367 107.28C423.794 106.893 424.171 106.513 424.497 106.14C424.831 105.767 425.091 105.4 425.277 105.04C425.471 104.68 425.567 104.333 425.567 104C425.567 103.753 425.524 103.523 425.437 103.31C425.357 103.097 425.224 102.927 425.037 102.8C424.851 102.667 424.597 102.6 424.277 102.6C423.971 102.6 423.714 102.67 423.507 102.81C423.301 102.943 423.144 103.123 423.037 103.35C422.937 103.577 422.887 103.82 422.887 104.08H422.077C422.077 103.62 422.174 103.227 422.367 102.9C422.561 102.567 422.824 102.313 423.157 102.14C423.491 101.967 423.867 101.88 424.287 101.88C424.907 101.88 425.414 102.057 425.807 102.41C426.207 102.757 426.407 103.277 426.407 103.97C426.407 104.383 426.304 104.793 426.097 105.2C425.891 105.6 425.627 105.99 425.307 106.37C424.987 106.743 424.644 107.093 424.277 107.42C423.917 107.747 423.581 108.04 423.267 108.3H426.647V109H422.027ZM428.1 109.05C427.933 109.05 427.793 108.997 427.68 108.89C427.573 108.777 427.52 108.64 427.52 108.48C427.52 108.32 427.573 108.187 427.68 108.08C427.793 107.967 427.933 107.91 428.1 107.91C428.26 107.91 428.393 107.967 428.5 108.08C428.613 108.187 428.67 108.32 428.67 108.48C428.67 108.64 428.613 108.777 428.5 108.89C428.393 108.997 428.26 109.05 428.1 109.05ZM428.1 105.06C427.933 105.06 427.793 105.007 427.68 104.9C427.573 104.787 427.52 104.65 427.52 104.49C427.52 104.33 427.573 104.197 427.68 104.09C427.793 103.977 427.933 103.92 428.1 103.92C428.26 103.92 428.393 103.977 428.5 104.09C428.613 104.197 428.67 104.33 428.67 104.49C428.67 104.65 428.613 104.787 428.5 104.9C428.393 105.007 428.26 105.06 428.1 105.06ZM432.232 109.12C431.752 109.12 431.336 109.033 430.982 108.86C430.629 108.687 430.346 108.45 430.132 108.15C429.926 107.843 429.799 107.497 429.752 107.11H430.572C430.652 107.497 430.839 107.81 431.132 108.05C431.426 108.283 431.796 108.4 432.242 108.4C432.576 108.4 432.862 108.323 433.102 108.17C433.342 108.01 433.526 107.797 433.652 107.53C433.786 107.263 433.852 106.967 433.852 106.64C433.852 106.12 433.706 105.7 433.412 105.38C433.119 105.06 432.739 104.9 432.272 104.9C431.886 104.9 431.556 104.987 431.282 105.16C431.009 105.333 430.809 105.56 430.682 105.84H429.882L430.482 102H434.152V102.73H431.132L430.722 104.86C430.882 104.667 431.102 104.507 431.382 104.38C431.669 104.253 431.996 104.19 432.362 104.19C432.822 104.19 433.222 104.297 433.562 104.51C433.909 104.723 434.179 105.013 434.372 105.38C434.566 105.747 434.662 106.163 434.662 106.63C434.662 107.077 434.566 107.49 434.372 107.87C434.186 108.25 433.909 108.553 433.542 108.78C433.182 109.007 432.746 109.12 432.232 109.12ZM438.155 109.12C437.709 109.12 437.305 109.04 436.945 108.88C436.585 108.713 436.295 108.467 436.075 108.14C435.862 107.813 435.749 107.407 435.735 106.92H436.585C436.592 107.32 436.732 107.667 437.005 107.96C437.279 108.247 437.662 108.39 438.155 108.39C438.649 108.39 439.019 108.253 439.265 107.98C439.519 107.707 439.645 107.377 439.645 106.99C439.645 106.663 439.565 106.397 439.405 106.19C439.252 105.983 439.042 105.83 438.775 105.73C438.515 105.63 438.229 105.58 437.915 105.58H437.395V104.87H437.915C438.369 104.87 438.722 104.767 438.975 104.56C439.235 104.353 439.365 104.063 439.365 103.69C439.365 103.377 439.262 103.12 439.055 102.92C438.855 102.713 438.555 102.61 438.155 102.61C437.769 102.61 437.459 102.727 437.225 102.96C436.992 103.187 436.862 103.473 436.835 103.82H435.985C436.005 103.44 436.105 103.103 436.285 102.81C436.472 102.517 436.725 102.29 437.045 102.13C437.365 101.963 437.735 101.88 438.155 101.88C438.609 101.88 438.985 101.96 439.285 102.12C439.592 102.28 439.822 102.493 439.975 102.76C440.135 103.027 440.215 103.32 440.215 103.64C440.215 103.993 440.119 104.317 439.925 104.61C439.732 104.897 439.442 105.09 439.055 105.19C439.469 105.277 439.812 105.473 440.085 105.78C440.359 106.087 440.495 106.49 440.495 106.99C440.495 107.377 440.405 107.733 440.225 108.06C440.052 108.38 439.792 108.637 439.445 108.83C439.099 109.023 438.669 109.12 438.155 109.12ZM444.061 109L446.641 102H447.531L450.101 109H449.211L448.571 107.2H445.591L444.941 109H444.061ZM445.841 106.52H448.321L447.081 103.06L445.841 106.52ZM451.141 109V102H452.121L454.641 106.88L457.141 102H458.131V109H457.291V103.5L454.951 108H454.321L451.981 103.51V109H451.141Z" fill="#868897"/>
<rect x="349.483" y="160" width="8" height="8" rx="2" fill="#9CE76E"/>
<path d="M366.339 168V160.428H363.831V159.6H369.855V160.428H367.347V168H366.339ZM372.66 168.144C372.1 168.144 371.596 168.016 371.148 167.76C370.7 167.504 370.344 167.144 370.08 166.68C369.824 166.208 369.696 165.656 369.696 165.024C369.696 164.392 369.828 163.844 370.092 163.38C370.356 162.908 370.712 162.544 371.16 162.288C371.616 162.032 372.124 161.904 372.684 161.904C373.244 161.904 373.748 162.032 374.196 162.288C374.644 162.544 374.996 162.908 375.252 163.38C375.516 163.844 375.648 164.392 375.648 165.024C375.648 165.656 375.516 166.208 375.252 166.68C374.988 167.144 374.628 167.504 374.172 167.76C373.724 168.016 373.22 168.144 372.66 168.144ZM372.66 167.28C373.004 167.28 373.324 167.196 373.62 167.028C373.916 166.86 374.156 166.608 374.34 166.272C374.524 165.936 374.616 165.52 374.616 165.024C374.616 164.528 374.524 164.112 374.34 163.776C374.164 163.44 373.928 163.188 373.632 163.02C373.336 162.852 373.02 162.768 372.684 162.768C372.34 162.768 372.02 162.852 371.724 163.02C371.428 163.188 371.188 163.44 371.004 163.776C370.82 164.112 370.728 164.528 370.728 165.024C370.728 165.52 370.82 165.936 371.004 166.272C371.188 166.608 371.424 166.86 371.712 167.028C372.008 167.196 372.324 167.28 372.66 167.28ZM379.167 168C378.623 168 378.195 167.868 377.883 167.604C377.571 167.34 377.415 166.864 377.415 166.176V162.9H376.383V162.048H377.415L377.547 160.62H378.423V162.048H380.175V162.9H378.423V166.176C378.423 166.552 378.499 166.808 378.651 166.944C378.803 167.072 379.071 167.136 379.455 167.136H380.079V168H379.167ZM383.436 168.144C382.94 168.144 382.528 168.06 382.2 167.892C381.872 167.724 381.628 167.5 381.468 167.22C381.308 166.94 381.228 166.636 381.228 166.308C381.228 165.7 381.46 165.232 381.924 164.904C382.388 164.576 383.02 164.412 383.82 164.412H385.428V164.34C385.428 163.82 385.292 163.428 385.02 163.164C384.748 162.892 384.384 162.756 383.928 162.756C383.536 162.756 383.196 162.856 382.908 163.056C382.628 163.248 382.452 163.532 382.38 163.908H381.348C381.388 163.476 381.532 163.112 381.78 162.816C382.036 162.52 382.352 162.296 382.728 162.144C383.104 161.984 383.504 161.904 383.928 161.904C384.76 161.904 385.384 162.128 385.8 162.576C386.224 163.016 386.436 163.604 386.436 164.34V168H385.536L385.476 166.932C385.308 167.268 385.06 167.556 384.732 167.796C384.412 168.028 383.98 168.144 383.436 168.144ZM383.592 167.292C383.976 167.292 384.304 167.192 384.576 166.992C384.856 166.792 385.068 166.532 385.212 166.212C385.356 165.892 385.428 165.556 385.428 165.204V165.192H383.904C383.312 165.192 382.892 165.296 382.644 165.504C382.404 165.704 382.284 165.956 382.284 166.26C382.284 166.572 382.396 166.824 382.62 167.016C382.852 167.2 383.176 167.292 383.592 167.292ZM387.948 168V159.36H388.956V168H387.948ZM393.844 168V159.6H396.796C397.388 159.6 397.876 159.696 398.26 159.888C398.652 160.072 398.944 160.328 399.136 160.656C399.328 160.976 399.424 161.336 399.424 161.736C399.424 162.28 399.276 162.708 398.98 163.02C398.692 163.332 398.344 163.548 397.936 163.668C398.248 163.724 398.532 163.848 398.788 164.04C399.044 164.232 399.244 164.472 399.388 164.76C399.54 165.048 399.616 165.364 399.616 165.708C399.616 166.132 399.512 166.52 399.304 166.872C399.096 167.216 398.788 167.492 398.38 167.7C397.972 167.9 397.476 168 396.892 168H393.844ZM394.852 163.272H396.724C397.26 163.272 397.672 163.148 397.96 162.9C398.248 162.644 398.392 162.292 398.392 161.844C398.392 161.42 398.248 161.08 397.96 160.824C397.68 160.568 397.256 160.44 396.688 160.44H394.852V163.272ZM394.852 167.16H396.784C397.36 167.16 397.804 167.028 398.116 166.764C398.428 166.492 398.584 166.116 398.584 165.636C398.584 165.164 398.42 164.788 398.092 164.508C397.764 164.22 397.32 164.076 396.76 164.076H394.852V167.16ZM402.983 168.144C402.487 168.144 402.075 168.06 401.747 167.892C401.419 167.724 401.175 167.5 401.015 167.22C400.855 166.94 400.775 166.636 400.775 166.308C400.775 165.7 401.007 165.232 401.471 164.904C401.935 164.576 402.567 164.412 403.367 164.412H404.975V164.34C404.975 163.82 404.839 163.428 404.567 163.164C404.295 162.892 403.931 162.756 403.475 162.756C403.083 162.756 402.743 162.856 402.455 163.056C402.175 163.248 401.999 163.532 401.927 163.908H400.895C400.935 163.476 401.079 163.112 401.327 162.816C401.583 162.52 401.899 162.296 402.275 162.144C402.651 161.984 403.051 161.904 403.475 161.904C404.307 161.904 404.931 162.128 405.347 162.576C405.771 163.016 405.983 163.604 405.983 164.34V168H405.083L405.023 166.932C404.855 167.268 404.607 167.556 404.279 167.796C403.959 168.028 403.527 168.144 402.983 168.144ZM403.139 167.292C403.523 167.292 403.851 167.192 404.123 166.992C404.403 166.792 404.615 166.532 404.759 166.212C404.903 165.892 404.975 165.556 404.975 165.204V165.192H403.451C402.859 165.192 402.439 165.296 402.191 165.504C401.951 165.704 401.831 165.956 401.831 166.26C401.831 166.572 401.943 166.824 402.167 167.016C402.399 167.2 402.723 167.292 403.139 167.292ZM407.495 168V159.36H408.503V168H407.495ZM410.155 168V159.36H411.163V168H410.155ZM414.795 168.144C414.299 168.144 413.887 168.06 413.559 167.892C413.231 167.724 412.987 167.5 412.827 167.22C412.667 166.94 412.587 166.636 412.587 166.308C412.587 165.7 412.819 165.232 413.283 164.904C413.747 164.576 414.379 164.412 415.179 164.412H416.787V164.34C416.787 163.82 416.651 163.428 416.379 163.164C416.107 162.892 415.743 162.756 415.287 162.756C414.895 162.756 414.555 162.856 414.267 163.056C413.987 163.248 413.811 163.532 413.739 163.908H412.707C412.747 163.476 412.891 163.112 413.139 162.816C413.395 162.52 413.711 162.296 414.087 162.144C414.463 161.984 414.863 161.904 415.287 161.904C416.119 161.904 416.743 162.128 417.159 162.576C417.583 163.016 417.795 163.604 417.795 164.34V168H416.895L416.835 166.932C416.667 167.268 416.419 167.556 416.091 167.796C415.771 168.028 415.339 168.144 414.795 168.144ZM414.951 167.292C415.335 167.292 415.663 167.192 415.935 166.992C416.215 166.792 416.427 166.532 416.571 166.212C416.715 165.892 416.787 165.556 416.787 165.204V165.192H415.263C414.671 165.192 414.251 165.296 414.003 165.504C413.763 165.704 413.643 165.956 413.643 166.26C413.643 166.572 413.755 166.824 413.979 167.016C414.211 167.2 414.535 167.292 414.951 167.292ZM419.307 168V162.048H420.219L420.279 163.116C420.471 162.74 420.747 162.444 421.107 162.228C421.467 162.012 421.875 161.904 422.331 161.904C423.035 161.904 423.595 162.12 424.011 162.552C424.435 162.976 424.647 163.632 424.647 164.52V168H423.639V164.628C423.639 163.388 423.127 162.768 422.103 162.768C421.591 162.768 421.163 162.956 420.819 163.332C420.483 163.7 420.315 164.228 420.315 164.916V168H419.307ZM428.911 168.144C428.343 168.144 427.831 168.016 427.375 167.76C426.927 167.496 426.571 167.132 426.307 166.668C426.051 166.196 425.923 165.648 425.923 165.024C425.923 164.4 426.051 163.856 426.307 163.392C426.571 162.92 426.927 162.556 427.375 162.3C427.831 162.036 428.343 161.904 428.911 161.904C429.615 161.904 430.207 162.088 430.687 162.456C431.175 162.824 431.483 163.316 431.611 163.932H430.579C430.499 163.564 430.303 163.28 429.991 163.08C429.679 162.872 429.315 162.768 428.899 162.768C428.563 162.768 428.247 162.852 427.951 163.02C427.655 163.188 427.415 163.44 427.231 163.776C427.047 164.112 426.955 164.528 426.955 165.024C426.955 165.52 427.047 165.936 427.231 166.272C427.415 166.608 427.655 166.864 427.951 167.04C428.247 167.208 428.563 167.292 428.899 167.292C429.315 167.292 429.679 167.192 429.991 166.992C430.303 166.784 430.499 166.492 430.579 166.116H431.611C431.491 166.716 431.187 167.204 430.699 167.58C430.211 167.956 429.615 168.144 428.911 168.144ZM435.694 168.144C435.126 168.144 434.622 168.016 434.182 167.76C433.742 167.496 433.394 167.132 433.138 166.668C432.89 166.204 432.766 165.656 432.766 165.024C432.766 164.4 432.89 163.856 433.138 163.392C433.386 162.92 433.73 162.556 434.17 162.3C434.618 162.036 435.134 161.904 435.718 161.904C436.294 161.904 436.79 162.036 437.206 162.3C437.63 162.556 437.954 162.896 438.178 163.32C438.402 163.744 438.514 164.2 438.514 164.688C438.514 164.776 438.51 164.864 438.502 164.952C438.502 165.04 438.502 165.14 438.502 165.252H433.762C433.786 165.708 433.89 166.088 434.074 166.392C434.266 166.688 434.502 166.912 434.782 167.064C435.07 167.216 435.374 167.292 435.694 167.292C436.11 167.292 436.458 167.196 436.738 167.004C437.018 166.812 437.222 166.552 437.35 166.224H438.346C438.186 166.776 437.878 167.236 437.422 167.604C436.974 167.964 436.398 168.144 435.694 168.144ZM435.694 162.756C435.214 162.756 434.786 162.904 434.41 163.2C434.042 163.488 433.83 163.912 433.774 164.472H437.518C437.494 163.936 437.31 163.516 436.966 163.212C436.622 162.908 436.198 162.756 435.694 162.756Z" fill="#868897"/>
<path d="M354.235 139.566V138.18C353.071 138.048 352.123 137.64 351.391 136.956C350.659 136.272 350.281 135.354 350.257 134.202H352.687C352.711 134.682 352.855 135.102 353.119 135.462C353.395 135.822 353.767 136.068 354.235 136.2V132.402C354.127 132.366 354.013 132.33 353.893 132.294C353.785 132.258 353.671 132.222 353.551 132.186C352.579 131.85 351.835 131.418 351.319 130.89C350.815 130.362 350.563 129.66 350.563 128.784C350.551 127.752 350.887 126.924 351.571 126.3C352.255 125.664 353.143 125.298 354.235 125.202V123.744H355.441V125.22C356.521 125.328 357.391 125.706 358.051 126.354C358.723 126.99 359.077 127.812 359.113 128.82H356.647C356.635 128.472 356.521 128.154 356.305 127.866C356.101 127.566 355.813 127.356 355.441 127.236V130.584C355.537 130.62 355.633 130.656 355.729 130.692C355.825 130.716 355.921 130.746 356.017 130.782C356.641 130.998 357.211 131.25 357.727 131.538C358.243 131.826 358.657 132.21 358.969 132.69C359.281 133.158 359.437 133.764 359.437 134.508C359.437 135.132 359.281 135.714 358.969 136.254C358.669 136.794 358.219 137.244 357.619 137.604C357.031 137.952 356.305 138.15 355.441 138.198V139.566H354.235ZM352.975 128.622C352.975 129.006 353.089 129.318 353.317 129.558C353.545 129.786 353.851 129.984 354.235 130.152V127.164C353.863 127.236 353.557 127.398 353.317 127.65C353.089 127.902 352.975 128.226 352.975 128.622ZM356.989 134.67C356.989 134.19 356.845 133.812 356.557 133.536C356.269 133.26 355.897 133.026 355.441 132.834V136.254C355.921 136.182 356.299 136.008 356.575 135.732C356.851 135.456 356.989 135.102 356.989 134.67ZM365.966 138.216C365.042 138.216 364.244 138.054 363.572 137.73C362.912 137.406 362.39 136.962 362.006 136.398C361.634 135.822 361.418 135.174 361.358 134.454H363.608C363.716 134.97 363.98 135.402 364.4 135.75C364.82 136.086 365.342 136.254 365.966 136.254C366.638 136.254 367.184 136.008 367.604 135.516C368.036 135.024 368.252 134.412 368.252 133.68C368.252 132.924 368.036 132.324 367.604 131.88C367.184 131.436 366.65 131.214 366.002 131.214C365.462 131.214 364.994 131.346 364.598 131.61C364.202 131.874 363.92 132.204 363.752 132.6H361.538L362.618 125.4H369.602V127.416H364.346L363.77 130.332C364.034 130.044 364.394 129.81 364.85 129.63C365.306 129.438 365.816 129.342 366.38 129.342C367.28 129.342 368.03 129.546 368.63 129.954C369.23 130.35 369.686 130.878 369.998 131.538C370.31 132.186 370.466 132.894 370.466 133.662C370.466 134.538 370.274 135.318 369.89 136.002C369.518 136.686 368.99 137.226 368.306 137.622C367.634 138.018 366.854 138.216 365.966 138.216ZM372.146 138V136.326C372.914 135.69 373.658 135.06 374.378 134.436C375.11 133.812 375.758 133.194 376.322 132.582C376.898 131.97 377.354 131.376 377.69 130.8C378.038 130.212 378.212 129.642 378.212 129.09C378.212 128.574 378.068 128.118 377.78 127.722C377.504 127.326 377.042 127.128 376.394 127.128C375.734 127.128 375.236 127.344 374.9 127.776C374.564 128.208 374.396 128.73 374.396 129.342H372.164C372.188 128.418 372.392 127.65 372.776 127.038C373.16 126.414 373.67 125.952 374.306 125.652C374.942 125.34 375.656 125.184 376.448 125.184C377.732 125.184 378.728 125.538 379.436 126.246C380.156 126.942 380.516 127.848 380.516 128.964C380.516 129.66 380.354 130.338 380.03 130.998C379.718 131.658 379.304 132.294 378.788 132.906C378.272 133.518 377.714 134.094 377.114 134.634C376.514 135.162 375.932 135.654 375.368 136.11H380.822V138H372.146ZM387.023 138.216C386.159 138.216 385.379 138.066 384.683 137.766C383.987 137.454 383.429 137.016 383.009 136.452C382.601 135.888 382.397 135.234 382.397 134.49C382.397 133.722 382.595 133.05 382.991 132.474C383.399 131.898 383.933 131.484 384.593 131.232C384.017 130.98 383.561 130.62 383.225 130.152C382.889 129.672 382.721 129.138 382.721 128.55C382.721 127.95 382.883 127.398 383.207 126.894C383.531 126.378 384.011 125.964 384.647 125.652C385.295 125.34 386.087 125.184 387.023 125.184C387.959 125.184 388.745 125.34 389.381 125.652C390.017 125.964 390.497 126.378 390.821 126.894C391.145 127.398 391.307 127.95 391.307 128.55C391.307 129.126 391.133 129.66 390.785 130.152C390.449 130.632 389.999 130.992 389.435 131.232C390.107 131.484 390.641 131.898 391.037 132.474C391.433 133.05 391.631 133.722 391.631 134.49C391.631 135.234 391.427 135.888 391.019 136.452C390.611 137.016 390.053 137.454 389.345 137.766C388.649 138.066 387.875 138.216 387.023 138.216ZM387.023 130.548C387.647 130.548 388.139 130.386 388.499 130.062C388.859 129.738 389.039 129.324 389.039 128.82C389.039 128.268 388.859 127.836 388.499 127.524C388.151 127.212 387.659 127.056 387.023 127.056C386.375 127.056 385.877 127.212 385.529 127.524C385.181 127.836 385.007 128.268 385.007 128.82C385.007 129.336 385.181 129.756 385.529 130.08C385.889 130.392 386.387 130.548 387.023 130.548ZM387.023 136.29C387.791 136.29 388.373 136.104 388.769 135.732C389.165 135.348 389.363 134.868 389.363 134.292C389.363 133.656 389.153 133.158 388.733 132.798C388.325 132.438 387.755 132.258 387.023 132.258C386.291 132.258 385.709 132.438 385.277 132.798C384.857 133.158 384.647 133.656 384.647 134.292C384.647 134.868 384.845 135.348 385.241 135.732C385.649 136.104 386.243 136.29 387.023 136.29ZM393.433 138V136.326C394.201 135.69 394.945 135.06 395.665 134.436C396.397 133.812 397.045 133.194 397.609 132.582C398.185 131.97 398.641 131.376 398.977 130.8C399.325 130.212 399.499 129.642 399.499 129.09C399.499 128.574 399.355 128.118 399.067 127.722C398.791 127.326 398.329 127.128 397.681 127.128C397.021 127.128 396.523 127.344 396.187 127.776C395.851 128.208 395.683 128.73 395.683 129.342H393.451C393.475 128.418 393.679 127.65 394.063 127.038C394.447 126.414 394.957 125.952 395.593 125.652C396.229 125.34 396.943 125.184 397.735 125.184C399.019 125.184 400.015 125.538 400.723 126.246C401.443 126.942 401.803 127.848 401.803 128.964C401.803 129.66 401.641 130.338 401.317 130.998C401.005 131.658 400.591 132.294 400.075 132.906C399.559 133.518 399.001 134.094 398.401 134.634C397.801 135.162 397.219 135.654 396.655 136.11H402.109V138H393.433ZM404.958 138.126C404.538 138.126 404.19 137.994 403.914 137.73C403.65 137.466 403.518 137.148 403.518 136.776C403.518 136.392 403.65 136.068 403.914 135.804C404.19 135.54 404.538 135.408 404.958 135.408C405.378 135.408 405.72 135.54 405.984 135.804C406.26 136.068 406.398 136.392 406.398 136.776C406.398 137.148 406.26 137.466 405.984 137.73C405.72 137.994 405.378 138.126 404.958 138.126ZM412.535 138.216C411.587 138.216 410.789 138.042 410.141 137.694C409.493 137.346 408.971 136.878 408.575 136.29C408.179 135.702 407.891 135.048 407.711 134.328C407.543 133.608 407.459 132.87 407.459 132.114C407.459 130.71 407.657 129.492 408.053 128.46C408.449 127.416 409.019 126.612 409.763 126.048C410.507 125.472 411.407 125.184 412.463 125.184C413.327 125.184 414.059 125.358 414.659 125.706C415.271 126.042 415.745 126.486 416.081 127.038C416.417 127.59 416.615 128.184 416.675 128.82H414.533C414.425 128.268 414.191 127.842 413.831 127.542C413.471 127.242 413.009 127.092 412.445 127.092C411.641 127.092 410.993 127.464 410.501 128.208C410.009 128.94 409.745 130.062 409.709 131.574C409.997 131.082 410.429 130.674 411.005 130.35C411.581 130.026 412.223 129.864 412.931 129.864C413.627 129.864 414.281 130.032 414.893 130.368C415.505 130.704 415.997 131.178 416.369 131.79C416.753 132.402 416.945 133.122 416.945 133.95C416.945 134.706 416.759 135.408 416.387 136.056C416.027 136.704 415.511 137.226 414.839 137.622C414.179 138.018 413.411 138.216 412.535 138.216ZM412.409 136.236C413.081 136.236 413.633 136.032 414.065 135.624C414.509 135.204 414.731 134.676 414.731 134.04C414.731 133.368 414.509 132.828 414.065 132.42C413.621 132.012 413.057 131.808 412.373 131.808C411.929 131.808 411.527 131.91 411.167 132.114C410.819 132.306 410.543 132.57 410.339 132.906C410.135 133.23 410.033 133.596 410.033 134.004C410.033 134.652 410.255 135.186 410.699 135.606C411.155 136.026 411.725 136.236 412.409 136.236ZM424.969 138V135.66H418.759V133.824L424.663 125.4H427.273V133.662H428.929V135.66H427.273V138H424.969ZM421.225 133.662H425.113V127.938L421.225 133.662Z" fill="white"/>
<rect x="1" y="8" width="22" height="4" rx="2" fill="#9CE76E"/>
<path d="M37.332 15V6.166H34.406V5.2H41.434V6.166H38.508V15H37.332ZM44.7062 15.168C44.0528 15.168 43.4648 15.0187 42.9422 14.72C42.4195 14.4213 42.0042 14.0013 41.6962 13.46C41.3975 12.9093 41.2482 12.2653 41.2482 11.528C41.2482 10.7907 41.4022 10.1513 41.7102 9.61C42.0182 9.05933 42.4335 8.63467 42.9562 8.336C43.4882 8.03733 44.0808 7.888 44.7342 7.888C45.3875 7.888 45.9755 8.03733 46.4982 8.336C47.0208 8.63467 47.4315 9.05933 47.7302 9.61C48.0382 10.1513 48.1922 10.7907 48.1922 11.528C48.1922 12.2653 48.0382 12.9093 47.7302 13.46C47.4222 14.0013 47.0022 14.4213 46.4702 14.72C45.9475 15.0187 45.3595 15.168 44.7062 15.168ZM44.7062 14.16C45.1075 14.16 45.4808 14.062 45.8262 13.866C46.1715 13.67 46.4515 13.376 46.6662 12.984C46.8808 12.592 46.9882 12.1067 46.9882 11.528C46.9882 10.9493 46.8808 10.464 46.6662 10.072C46.4608 9.68 46.1855 9.386 45.8402 9.19C45.4948 8.994 45.1262 8.896 44.7342 8.896C44.3328 8.896 43.9595 8.994 43.6142 9.19C43.2688 9.386 42.9888 9.68 42.7742 10.072C42.5595 10.464 42.4522 10.9493 42.4522 11.528C42.4522 12.1067 42.5595 12.592 42.7742 12.984C42.9888 13.376 43.2642 13.67 43.6002 13.866C43.9455 14.062 44.3142 14.16 44.7062 14.16ZM52.2979 15C51.6632 15 51.1639 14.846 50.7999 14.538C50.4359 14.23 50.2539 13.6747 50.2539 12.872V9.05H49.0499V8.056H50.2539L50.4079 6.39H51.4299V8.056H53.4739V9.05H51.4299V12.872C51.4299 13.3107 51.5186 13.6093 51.6959 13.768C51.8732 13.9173 52.1859 13.992 52.6339 13.992H53.3619V15H52.2979ZM57.278 15.168C56.6993 15.168 56.2186 15.07 55.836 14.874C55.4533 14.678 55.1686 14.4167 54.982 14.09C54.7953 13.7633 54.702 13.4087 54.702 13.026C54.702 12.3167 54.9726 11.7707 55.514 11.388C56.0553 11.0053 56.7926 10.814 57.726 10.814H59.602V10.73C59.602 10.1233 59.4433 9.666 59.126 9.358C58.8086 9.04067 58.384 8.882 57.852 8.882C57.3946 8.882 56.998 8.99867 56.662 9.232C56.3353 9.456 56.13 9.78733 56.046 10.226H54.842C54.8886 9.722 55.0566 9.29733 55.346 8.952C55.6446 8.60667 56.0133 8.34533 56.452 8.168C56.8906 7.98133 57.3573 7.888 57.852 7.888C58.8226 7.888 59.5506 8.14933 60.036 8.672C60.5306 9.18533 60.778 9.87133 60.778 10.73V15H59.728L59.658 13.754C59.462 14.146 59.1726 14.482 58.79 14.762C58.4166 15.0327 57.9126 15.168 57.278 15.168ZM57.46 14.174C57.908 14.174 58.2906 14.0573 58.608 13.824C58.9346 13.5907 59.182 13.2873 59.35 12.914C59.518 12.5407 59.602 12.1487 59.602 11.738V11.724H57.824C57.1333 11.724 56.6433 11.8453 56.354 12.088C56.074 12.3213 55.934 12.6153 55.934 12.97C55.934 13.334 56.0646 13.628 56.326 13.852C56.5966 14.0667 56.9746 14.174 57.46 14.174ZM62.5422 15V4.92H63.7182V15H62.5422ZM69.4208 15V5.2H72.8648C73.5554 5.2 74.1248 5.312 74.5728 5.536C75.0301 5.75067 75.3708 6.04933 75.5948 6.432C75.8188 6.80533 75.9308 7.22533 75.9308 7.692C75.9308 8.32667 75.7581 8.826 75.4128 9.19C75.0768 9.554 74.6708 9.806 74.1948 9.946C74.5588 10.0113 74.8901 10.156 75.1888 10.38C75.4874 10.604 75.7208 10.884 75.8888 11.22C76.0661 11.556 76.1548 11.9247 76.1548 12.326C76.1548 12.8207 76.0334 13.2733 75.7908 13.684C75.5481 14.0853 75.1888 14.4073 74.7128 14.65C74.2368 14.8833 73.6581 15 72.9768 15H69.4208ZM70.5968 9.484H72.7808C73.4061 9.484 73.8868 9.33933 74.2228 9.05C74.5588 8.75133 74.7268 8.34067 74.7268 7.818C74.7268 7.32333 74.5588 6.92667 74.2228 6.628C73.8961 6.32933 73.4014 6.18 72.7388 6.18H70.5968V9.484ZM70.5968 14.02H72.8508C73.5228 14.02 74.0408 13.866 74.4048 13.558C74.7688 13.2407 74.9508 12.802 74.9508 12.242C74.9508 11.6913 74.7594 11.2527 74.3768 10.926C73.9941 10.59 73.4761 10.422 72.8228 10.422H70.5968V14.02ZM80.0826 15.168C79.504 15.168 79.0233 15.07 78.6406 14.874C78.258 14.678 77.9733 14.4167 77.7866 14.09C77.6 13.7633 77.5066 13.4087 77.5066 13.026C77.5066 12.3167 77.7773 11.7707 78.3186 11.388C78.86 11.0053 79.5973 10.814 80.5306 10.814H82.4066V10.73C82.4066 10.1233 82.248 9.666 81.9306 9.358C81.6133 9.04067 81.1886 8.882 80.6566 8.882C80.1993 8.882 79.8026 8.99867 79.4666 9.232C79.14 9.456 78.9346 9.78733 78.8506 10.226H77.6466C77.6933 9.722 77.8613 9.29733 78.1506 8.952C78.4493 8.60667 78.818 8.34533 79.2566 8.168C79.6953 7.98133 80.162 7.888 80.6566 7.888C81.6273 7.888 82.3553 8.14933 82.8406 8.672C83.3353 9.18533 83.5826 9.87133 83.5826 10.73V15H82.5326L82.4626 13.754C82.2666 14.146 81.9773 14.482 81.5946 14.762C81.2213 15.0327 80.7173 15.168 80.0826 15.168ZM80.2646 14.174C80.7126 14.174 81.0953 14.0573 81.4126 13.824C81.7393 13.5907 81.9866 13.2873 82.1546 12.914C82.3226 12.5407 82.4066 12.1487 82.4066 11.738V11.724H80.6286C79.938 11.724 79.448 11.8453 79.1586 12.088C78.8786 12.3213 78.7386 12.6153 78.7386 12.97C78.7386 13.334 78.8693 13.628 79.1306 13.852C79.4013 14.0667 79.7793 14.174 80.2646 14.174ZM85.3469 15V4.92H86.5229V15H85.3469ZM88.4504 15V4.92H89.6264V15H88.4504ZM93.8639 15.168C93.2852 15.168 92.8046 15.07 92.4219 14.874C92.0392 14.678 91.7546 14.4167 91.5679 14.09C91.3812 13.7633 91.2879 13.4087 91.2879 13.026C91.2879 12.3167 91.5586 11.7707 92.0999 11.388C92.6412 11.0053 93.3786 10.814 94.3119 10.814H96.1879V10.73C96.1879 10.1233 96.0292 9.666 95.7119 9.358C95.3946 9.04067 94.9699 8.882 94.4379 8.882C93.9806 8.882 93.5839 8.99867 93.2479 9.232C92.9212 9.456 92.7159 9.78733 92.6319 10.226H91.4279C91.4746 9.722 91.6426 9.29733 91.9319 8.952C92.2306 8.60667 92.5992 8.34533 93.0379 8.168C93.4766 7.98133 93.9432 7.888 94.4379 7.888C95.4086 7.888 96.1366 8.14933 96.6219 8.672C97.1166 9.18533 97.3639 9.87133 97.3639 10.73V15H96.3139L96.2439 13.754C96.0479 14.146 95.7586 14.482 95.3759 14.762C95.0026 15.0327 94.4986 15.168 93.8639 15.168ZM94.0459 14.174C94.4939 14.174 94.8766 14.0573 95.1939 13.824C95.5206 13.5907 95.7679 13.2873 95.9359 12.914C96.1039 12.5407 96.1879 12.1487 96.1879 11.738V11.724H94.4099C93.7192 11.724 93.2292 11.8453 92.9399 12.088C92.6599 12.3213 92.5199 12.6153 92.5199 12.97C92.5199 13.334 92.6506 13.628 92.9119 13.852C93.1826 14.0667 93.5606 14.174 94.0459 14.174ZM99.1281 15V8.056H100.192L100.262 9.302C100.486 8.86333 100.808 8.518 101.228 8.266C101.648 8.014 102.124 7.888 102.656 7.888C103.477 7.888 104.131 8.14 104.616 8.644C105.111 9.13867 105.358 9.904 105.358 10.94V15H104.182V11.066C104.182 9.61933 103.585 8.896 102.39 8.896C101.793 8.896 101.293 9.11533 100.892 9.554C100.5 9.98333 100.304 10.5993 100.304 11.402V15H99.1281ZM110.332 15.168C109.669 15.168 109.072 15.0187 108.54 14.72C108.017 14.412 107.602 13.9873 107.294 13.446C106.995 12.8953 106.846 12.256 106.846 11.528C106.846 10.8 106.995 10.1653 107.294 9.624C107.602 9.07333 108.017 8.64867 108.54 8.35C109.072 8.042 109.669 7.888 110.332 7.888C111.153 7.888 111.844 8.10267 112.404 8.532C112.973 8.96133 113.332 9.53533 113.482 10.254H112.278C112.184 9.82467 111.956 9.49333 111.592 9.26C111.228 9.01733 110.803 8.896 110.318 8.896C109.926 8.896 109.557 8.994 109.212 9.19C108.866 9.386 108.586 9.68 108.372 10.072C108.157 10.464 108.05 10.9493 108.05 11.528C108.05 12.1067 108.157 12.592 108.372 12.984C108.586 13.376 108.866 13.6747 109.212 13.88C109.557 14.076 109.926 14.174 110.318 14.174C110.803 14.174 111.228 14.0573 111.592 13.824C111.956 13.5813 112.184 13.2407 112.278 12.802H113.482C113.342 13.502 112.987 14.0713 112.418 14.51C111.848 14.9487 111.153 15.168 110.332 15.168ZM118.246 15.168C117.584 15.168 116.996 15.0187 116.482 14.72C115.969 14.412 115.563 13.9873 115.264 13.446C114.975 12.9047 114.83 12.2653 114.83 11.528C114.83 10.8 114.975 10.1653 115.264 9.624C115.554 9.07333 115.955 8.64867 116.468 8.35C116.991 8.042 117.593 7.888 118.274 7.888C118.946 7.888 119.525 8.042 120.01 8.35C120.505 8.64867 120.883 9.04533 121.144 9.54C121.406 10.0347 121.536 10.5667 121.536 11.136C121.536 11.2387 121.532 11.3413 121.522 11.444C121.522 11.5467 121.522 11.6633 121.522 11.794H115.992C116.02 12.326 116.142 12.7693 116.356 13.124C116.58 13.4693 116.856 13.7307 117.182 13.908C117.518 14.0853 117.873 14.174 118.246 14.174C118.732 14.174 119.138 14.062 119.464 13.838C119.791 13.614 120.029 13.3107 120.178 12.928H121.34C121.154 13.572 120.794 14.1087 120.262 14.538C119.74 14.958 119.068 15.168 118.246 15.168ZM118.246 8.882C117.686 8.882 117.187 9.05467 116.748 9.4C116.319 9.736 116.072 10.2307 116.006 10.884H120.374C120.346 10.2587 120.132 9.76867 119.73 9.414C119.329 9.05933 118.834 8.882 118.246 8.882Z" fill="#868897"/>
<rect x="219" y="8" width="22" height="4" rx="2" fill="#FF7500"/>
<path d="M253.036 15V5.2H254.408L257.936 12.032L261.436 5.2H262.822V15H261.646V7.3L258.37 13.6H257.488L254.212 7.314V15H253.036ZM265.576 18.08L267.298 14.328H266.892L264.134 8.056H265.408L267.704 13.46L270.14 8.056H271.358L266.808 18.08H265.576ZM278.67 15V6.166H275.744V5.2H282.772V6.166H279.846V15H278.67ZM286.044 15.168C285.391 15.168 284.803 15.0187 284.28 14.72C283.757 14.4213 283.342 14.0013 283.034 13.46C282.735 12.9093 282.586 12.2653 282.586 11.528C282.586 10.7907 282.74 10.1513 283.048 9.61C283.356 9.05933 283.771 8.63467 284.294 8.336C284.826 8.03733 285.419 7.888 286.072 7.888C286.725 7.888 287.313 8.03733 287.836 8.336C288.359 8.63467 288.769 9.05933 289.068 9.61C289.376 10.1513 289.53 10.7907 289.53 11.528C289.53 12.2653 289.376 12.9093 289.068 13.46C288.76 14.0013 288.34 14.4213 287.808 14.72C287.285 15.0187 286.697 15.168 286.044 15.168ZM286.044 14.16C286.445 14.16 286.819 14.062 287.164 13.866C287.509 13.67 287.789 13.376 288.004 12.984C288.219 12.592 288.326 12.1067 288.326 11.528C288.326 10.9493 288.219 10.464 288.004 10.072C287.799 9.68 287.523 9.386 287.178 9.19C286.833 8.994 286.464 8.896 286.072 8.896C285.671 8.896 285.297 8.994 284.952 9.19C284.607 9.386 284.327 9.68 284.112 10.072C283.897 10.464 283.79 10.9493 283.79 11.528C283.79 12.1067 283.897 12.592 284.112 12.984C284.327 13.376 284.602 13.67 284.938 13.866C285.283 14.062 285.652 14.16 286.044 14.16ZM291.165 15V4.92H292.341V10.982L295.183 8.056H296.625L293.545 11.192L297.017 15H295.519L292.341 11.402V15H291.165ZM300.836 15.168C300.173 15.168 299.585 15.0187 299.072 14.72C298.559 14.412 298.153 13.9873 297.854 13.446C297.565 12.9047 297.42 12.2653 297.42 11.528C297.42 10.8 297.565 10.1653 297.854 9.624C298.143 9.07333 298.545 8.64867 299.058 8.35C299.581 8.042 300.183 7.888 300.864 7.888C301.536 7.888 302.115 8.042 302.6 8.35C303.095 8.64867 303.473 9.04533 303.734 9.54C303.995 10.0347 304.126 10.5667 304.126 11.136C304.126 11.2387 304.121 11.3413 304.112 11.444C304.112 11.5467 304.112 11.6633 304.112 11.794H298.582C298.61 12.326 298.731 12.7693 298.946 13.124C299.17 13.4693 299.445 13.7307 299.772 13.908C300.108 14.0853 300.463 14.174 300.836 14.174C301.321 14.174 301.727 14.062 302.054 13.838C302.381 13.614 302.619 13.3107 302.768 12.928H303.93C303.743 13.572 303.384 14.1087 302.852 14.538C302.329 14.958 301.657 15.168 300.836 15.168ZM300.836 8.882C300.276 8.882 299.777 9.05467 299.338 9.4C298.909 9.736 298.661 10.2307 298.596 10.884H302.964C302.936 10.2587 302.721 9.76867 302.32 9.414C301.919 9.05933 301.424 8.882 300.836 8.882ZM305.685 15V8.056H306.749L306.819 9.302C307.043 8.86333 307.365 8.518 307.785 8.266C308.205 8.014 308.681 7.888 309.213 7.888C310.034 7.888 310.687 8.14 311.173 8.644C311.667 9.13867 311.915 9.904 311.915 10.94V15H310.739V11.066C310.739 9.61933 310.141 8.896 308.947 8.896C308.349 8.896 307.85 9.11533 307.449 9.554C307.057 9.98333 306.861 10.5993 306.861 11.402V15H305.685ZM316.356 15.168C315.526 15.168 314.835 14.958 314.284 14.538C313.734 14.118 313.412 13.5487 313.318 12.83H314.522C314.597 13.194 314.788 13.5113 315.096 13.782C315.414 14.0433 315.838 14.174 316.37 14.174C316.865 14.174 317.229 14.0713 317.462 13.866C317.696 13.6513 317.812 13.3993 317.812 13.11C317.812 12.69 317.658 12.41 317.35 12.27C317.052 12.13 316.627 12.004 316.076 11.892C315.703 11.8173 315.33 11.71 314.956 11.57C314.583 11.43 314.27 11.234 314.018 10.982C313.766 10.7207 313.64 10.38 313.64 9.96C313.64 9.35333 313.864 8.85867 314.312 8.476C314.77 8.084 315.386 7.888 316.16 7.888C316.898 7.888 317.5 8.07467 317.966 8.448C318.442 8.812 318.718 9.33467 318.792 10.016H317.63C317.584 9.66133 317.43 9.386 317.168 9.19C316.916 8.98467 316.576 8.882 316.146 8.882C315.726 8.882 315.4 8.97067 315.166 9.148C314.942 9.32533 314.83 9.55867 314.83 9.848C314.83 10.128 314.975 10.3473 315.264 10.506C315.563 10.6647 315.964 10.8 316.468 10.912C316.898 11.0053 317.304 11.122 317.686 11.262C318.078 11.3927 318.396 11.5933 318.638 11.864C318.89 12.1253 319.016 12.508 319.016 13.012C319.026 13.6373 318.788 14.1553 318.302 14.566C317.826 14.9673 317.178 15.168 316.356 15.168Z" fill="#868897"/>
<rect x="416" y="8" width="22" height="4" rx="2" fill="#A4A8FC"/>
<path d="M450.036 15V5.2H451.408L454.936 12.032L458.436 5.2H459.822V15H458.646V7.3L455.37 13.6H454.488L451.212 7.314V15H450.036ZM462.576 18.08L464.298 14.328H463.892L461.134 8.056H462.408L464.704 13.46L467.14 8.056H468.358L463.808 18.08H462.576ZM473.374 15V5.2H474.55L479.772 13.054V5.2H480.948V15H479.772L474.55 7.146V15H473.374ZM483.026 15V5.2H488.99V6.166H484.202V9.61H488.276V10.562H484.202V15H483.026ZM492.801 15V6.166H489.875V5.2H496.903V6.166H493.977V15H492.801ZM499.958 15.168C499.127 15.168 498.437 14.958 497.886 14.538C497.335 14.118 497.013 13.5487 496.92 12.83H498.124C498.199 13.194 498.39 13.5113 498.698 13.782C499.015 14.0433 499.44 14.174 499.972 14.174C500.467 14.174 500.831 14.0713 501.064 13.866C501.297 13.6513 501.414 13.3993 501.414 13.11C501.414 12.69 501.26 12.41 500.952 12.27C500.653 12.13 500.229 12.004 499.678 11.892C499.305 11.8173 498.931 11.71 498.558 11.57C498.185 11.43 497.872 11.234 497.62 10.982C497.368 10.7207 497.242 10.38 497.242 9.96C497.242 9.35333 497.466 8.85867 497.914 8.476C498.371 8.084 498.987 7.888 499.762 7.888C500.499 7.888 501.101 8.07467 501.568 8.448C502.044 8.812 502.319 9.33467 502.394 10.016H501.232C501.185 9.66133 501.031 9.386 500.77 9.19C500.518 8.98467 500.177 8.882 499.748 8.882C499.328 8.882 499.001 8.97067 498.768 9.148C498.544 9.32533 498.432 9.55867 498.432 9.848C498.432 10.128 498.577 10.3473 498.866 10.506C499.165 10.6647 499.566 10.8 500.07 10.912C500.499 11.0053 500.905 11.122 501.288 11.262C501.68 11.3927 501.997 11.5933 502.24 11.864C502.492 12.1253 502.618 12.508 502.618 13.012C502.627 13.6373 502.389 14.1553 501.904 14.566C501.428 14.9673 500.779 15.168 499.958 15.168Z" fill="#868897"/>
<defs>
<clipPath id="clip0_2001_222">
<rect width="1124" height="340" fill="white" transform="translate(1 34)"/>
</clipPath>
</defs>
</svg>
