<svg width="16" height="16" viewBox="0 0 16 16" fill="none" xmlns="http://www.w3.org/2000/svg">
<path d="M10.7806 2.33057H4.11398C2.53602 2.33057 1.25684 3.60975 1.25684 5.18771V11.8544C1.25684 13.4323 2.53602 14.7115 4.11398 14.7115H10.7806C12.3586 14.7115 13.6378 13.4323 13.6378 11.8544V5.18771C13.6378 3.60975 12.3586 2.33057 10.7806 2.33057Z" fill="#7B60E8"/>
<path d="M11.8861 1.28833H5.21945C3.64149 1.28833 2.3623 2.56752 2.3623 4.14547V10.8121C2.3623 12.3901 3.64149 13.6693 5.21945 13.6693H11.8861C13.4641 13.6693 14.7433 12.3901 14.7433 10.8121V4.14547C14.7433 2.56752 13.4641 1.28833 11.8861 1.28833Z" fill="#A4A8FC"/>
<path d="M11.1406 5.14551L7.33103 9.90741L5.42627 8.47884" stroke="#110D14" stroke-linecap="round" stroke-linejoin="round"/>
</svg>
