<svg width="164" height="164" viewBox="0 0 164 164" fill="none" xmlns="http://www.w3.org/2000/svg">
<path d="M102.373 20.4738L102.515 20.4021L102.579 20.2563L105.16 14.406L115.646 19.031C119.022 20.5198 121.506 23.7164 123.072 28.3208C124.637 32.9257 125.266 38.894 124.956 45.8304C124.335 59.7002 119.963 77.3441 111.972 95.4627C103.981 113.581 93.8997 128.707 84.0762 138.518C79.1633 143.424 74.3319 146.984 69.8758 148.933C65.4201 150.882 61.3841 151.203 58.0085 149.714L47.5221 145.089L50.1024 139.239L50.1667 139.093L50.1237 138.94C48.1372 131.858 48.1243 122.014 50.0676 110.635C52.0094 99.2646 55.8986 86.3962 61.6823 73.2825C67.4661 60.1688 74.3463 48.6196 81.4333 39.5185C88.5258 30.4104 95.8035 23.7823 102.373 20.4738Z" fill="#276FDA" stroke="#110D14" stroke-width="0.888542"/>
<ellipse cx="76.9527" cy="80.0171" rx="71.8589" ry="27.9262" transform="rotate(-66.2003 76.9527 80.0171)" fill="#7EDBFF" stroke="#110D14" stroke-width="0.888542"/>
<ellipse cx="76.9529" cy="80.0172" rx="66.7141" ry="23.2531" transform="rotate(-66.2003 76.9529 80.0172)" fill="#67C7EC" stroke="#110D14" stroke-width="0.888542"/>
<path d="M86.2806 59.5933C80.3472 71.7191 77.9284 82.5604 80.6351 84.8964C77.1543 84.0793 69.8043 92.4075 63.4802 104.334C69.4136 92.2083 71.8324 81.3672 69.1257 79.0311C72.6064 79.8483 79.9565 71.52 86.2806 59.5933Z" fill="#276FDA"/>
</svg>
