<svg width="80" height="68" viewBox="0 0 80 68" fill="none" xmlns="http://www.w3.org/2000/svg">
<path d="M24.8945 22.7574H22.998V24.6539H24.8945V22.7574Z" fill="#98E75F"/>
<path d="M26.7915 22.7574H24.895V24.6539H26.7915V22.7574Z" fill="#98E75F"/>
<path d="M28.6894 22.7574H26.793V24.6539H28.6894V22.7574Z" fill="#98E75F"/>
<path d="M24.8945 20.8551H22.998V22.7516H24.8945V20.8551Z" fill="#98E75F"/>
<path d="M26.7915 20.8551H24.895V22.7516H26.7915V20.8551Z" fill="#98E75F"/>
<path d="M28.6894 20.8551H26.793V22.7516H28.6894V20.8551Z" fill="#98E75F"/>
<path d="M30.5849 20.8551H28.6885V22.7516H30.5849V20.8551Z" fill="#98E75F"/>
<path d="M30.5849 22.7574H28.6885V24.6539H30.5849V22.7574Z" fill="#5DC74F"/>
<path d="M28.6894 24.6451H26.793V26.5416H28.6894V24.6451Z" fill="#5DC74F"/>
<path d="M32.4834 22.7574H30.5869V24.6539H32.4834V22.7574Z" fill="#41A44D"/>
<path d="M22.9965 20.8551H21.1001V22.7516H22.9965V20.8551Z" fill="#41A44D"/>
<path d="M30.5849 24.6451H28.6885V26.5416H30.5849V24.6451Z" fill="#41A44D"/>
<path d="M15.4082 22.7574H13.5117V24.6539H15.4082V22.7574Z" fill="#F4D2FD"/>
<path d="M17.3056 22.7574H15.4092V24.6539H17.3056V22.7574Z" fill="#F4D2FD"/>
<path d="M4.02487 24.6451H2.12842V26.5416H4.02487V24.6451Z" fill="#C250FE"/>
<path d="M5.92282 24.6451H4.02637V26.5416H5.92282V24.6451Z" fill="#F4D2FD"/>
<path d="M7.81881 26.543H5.92236V28.4394H7.81881V26.543Z" fill="#F4D2FD"/>
<path d="M21.101 28.4395H19.2046V30.3359H21.101V28.4395Z" fill="#F4D2FD"/>
<path d="M19.2026 30.3374H17.3062V32.2338H19.2026V30.3374Z" fill="#F4D2FD"/>
<path d="M7.81881 34.1317H5.92236V36.0282H7.81881V34.1317Z" fill="#F4D2FD"/>
<path d="M5.92282 36.0282H4.02637V37.9247H5.92282V36.0282Z" fill="#F4D2FD"/>
<path d="M17.3056 36.0282H15.4092V37.9247H17.3056V36.0282Z" fill="#F4D2FD"/>
<path d="M15.4082 37.9261H13.5117V39.8226H15.4082V37.9261Z" fill="#F4D2FD"/>
<path d="M19.2026 22.7574H17.3062V24.6539H19.2026V22.7574Z" fill="#C250FE"/>
<path d="M9.71725 24.6451H7.8208V26.5416H9.71725V24.6451Z" fill="#C250FE"/>
<path d="M11.6142 24.6451H9.71777V26.5416H11.6142V24.6451Z" fill="#C250FE"/>
<path d="M15.4082 24.6451H13.5117V26.5416H15.4082V24.6451Z" fill="#C250FE"/>
<path d="M17.3056 24.6451H15.4092V26.5416H17.3056V24.6451Z" fill="#C250FE"/>
<path d="M5.92282 26.543H4.02637V28.4394H5.92282V26.543Z" fill="#C250FE"/>
<path d="M9.71725 26.543H7.8208V28.4394H9.71725V26.543Z" fill="#C250FE"/>
<path d="M15.4082 26.543H13.5117V28.4394H15.4082V26.543Z" fill="#C250FE"/>
<path d="M19.2026 26.543H17.3062V28.4394H19.2026V26.543Z" fill="#C250FE"/>
<path d="M5.92282 28.4395H4.02637V30.3359H5.92282V28.4395Z" fill="#C250FE"/>
<path d="M7.81881 28.4395H5.92236V30.3359H7.81881V28.4395Z" fill="#C250FE"/>
<path d="M22.9965 28.4395H21.1001V30.3359H22.9965V28.4395Z" fill="#C250FE"/>
<path d="M24.8945 28.4395H22.998V30.3359H24.8945V28.4395Z" fill="#C250FE"/>
<path d="M5.92282 30.3374H4.02637V32.2338H5.92282V30.3374Z" fill="#C250FE"/>
<path d="M7.81881 30.3374H5.92236V32.2338H7.81881V30.3374Z" fill="#C250FE"/>
<path d="M9.71725 30.3374H7.8208V32.2338H9.71725V30.3374Z" fill="#C250FE"/>
<path d="M21.101 30.3374H19.2046V32.2338H21.101V30.3374Z" fill="#C250FE"/>
<path d="M22.9965 30.3374H21.1001V32.2338H22.9965V30.3374Z" fill="#C250FE"/>
<path d="M24.8945 30.3374H22.998V32.2338H24.8945V30.3374Z" fill="#C250FE"/>
<path d="M26.7915 30.3374H24.895V32.2338H26.7915V30.3374Z" fill="#C250FE"/>
<path d="M21.101 32.2338H19.2046V34.1303H21.101V32.2338Z" fill="#C250FE"/>
<path d="M22.9965 32.2338H21.1001V34.1303H22.9965V32.2338Z" fill="#C250FE"/>
<path d="M24.8945 32.2338H22.998V34.1303H24.8945V32.2338Z" fill="#C250FE"/>
<path d="M26.7915 32.2338H24.895V34.1303H26.7915V32.2338Z" fill="#C250FE"/>
<path d="M5.92282 34.1317H4.02637V36.0282H5.92282V34.1317Z" fill="#C250FE"/>
<path d="M22.9965 34.1317H21.1001V36.0282H22.9965V34.1317Z" fill="#C250FE"/>
<path d="M24.8945 34.1317H22.998V36.0282H24.8945V34.1317Z" fill="#C250FE"/>
<path d="M7.81881 36.0282H5.92236V37.9247H7.81881V36.0282Z" fill="#C250FE"/>
<path d="M9.71725 36.0282H7.8208V37.9247H9.71725V36.0282Z" fill="#C250FE"/>
<path d="M19.2026 36.0282H17.3062V37.9247H19.2026V36.0282Z" fill="#C250FE"/>
<path d="M5.92282 37.9261H4.02637V39.8226H5.92282V37.9261Z" fill="#C250FE"/>
<path d="M7.81881 37.9261H5.92236V39.8226H7.81881V37.9261Z" fill="#C250FE"/>
<path d="M9.71725 37.9261H7.8208V39.8226H9.71725V37.9261Z" fill="#C250FE"/>
<path d="M11.6142 37.9261H9.71777V39.8226H11.6142V37.9261Z" fill="#C250FE"/>
<path d="M17.3056 37.9261H15.4092V39.8226H17.3056V37.9261Z" fill="#C250FE"/>
<path d="M19.2026 37.9261H17.3062V39.8226H19.2026V37.9261Z" fill="#C250FE"/>
<path d="M21.101 37.9261H19.2046V39.8226H21.101V37.9261Z" fill="#C250FE"/>
<path d="M5.92282 39.8225H4.02637V41.719H5.92282V39.8225Z" fill="#C250FE"/>
<path d="M7.81881 39.8225H5.92236V41.719H7.81881V39.8225Z" fill="#C250FE"/>
<path d="M15.4082 39.8225H13.5117V41.719H15.4082V39.8225Z" fill="#C250FE"/>
<path d="M17.3056 39.8225H15.4092V41.719H17.3056V39.8225Z" fill="#C250FE"/>
<path d="M19.2026 39.8225H17.3062V41.719H19.2026V39.8225Z" fill="#C250FE"/>
<path d="M21.101 39.8225H19.2046V41.719H21.101V39.8225Z" fill="#C250FE"/>
<path d="M15.4082 41.7205H13.5117V43.6169H15.4082V41.7205Z" fill="#C250FE"/>
<path d="M17.3056 41.7205H15.4092V43.6169H17.3056V41.7205Z" fill="#C250FE"/>
<path d="M19.2026 41.7205H17.3062V43.6169H19.2026V41.7205Z" fill="#C250FE"/>
<path d="M21.101 41.7205H19.2046V43.6169H21.101V41.7205Z" fill="#C250FE"/>
<path d="M11.6142 43.6169H9.71777V45.5134H11.6142V43.6169Z" fill="#C250FE"/>
<path d="M13.5117 43.6169H11.6152V45.5134H13.5117V43.6169Z" fill="#C250FE"/>
<path d="M9.71725 45.5148H7.8208V47.4113H9.71725V45.5148Z" fill="#C250FE"/>
<path d="M11.6142 45.5148H9.71777V47.4113H11.6142V45.5148Z" fill="#C250FE"/>
<path d="M13.5117 45.5148H11.6152V47.4113H13.5117V45.5148Z" fill="#C250FE"/>
<path d="M15.4082 45.5148H13.5117V47.4113H15.4082V45.5148Z" fill="#C250FE"/>
<path d="M9.71725 47.4113H7.8208V49.3077H9.71725V47.4113Z" fill="#C250FE"/>
<path d="M11.6142 47.4113H9.71777V49.3077H11.6142V47.4113Z" fill="#C250FE"/>
<path d="M13.5117 47.4113H11.6152V49.3077H13.5117V47.4113Z" fill="#C250FE"/>
<path d="M15.4082 47.4113H13.5117V49.3077H15.4082V47.4113Z" fill="#C250FE"/>
<path d="M13.5117 49.3092H11.6152V51.2057H13.5117V49.3092Z" fill="#C250FE"/>
<path d="M11.6142 32.2338H9.71777V34.1303H11.6142V32.2338Z" fill="#C250FE"/>
<path d="M5.92282 22.7574H4.02637V24.6539H5.92282V22.7574Z" fill="#8619EC"/>
<path d="M7.81881 22.7574H5.92236V24.6539H7.81881V22.7574Z" fill="#8619EC"/>
<path d="M4.02487 26.543H2.12842V28.4394H4.02487V26.543Z" fill="#8619EC"/>
<path d="M24.8945 26.543H22.998V28.4394H24.8945V26.543Z" fill="#8619EC"/>
<path d="M26.7915 26.543H24.895V28.4394H26.7915V26.543Z" fill="#8619EC"/>
<path d="M4.02487 28.4395H2.12842V30.3359H4.02487V28.4395Z" fill="#8619EC"/>
<path d="M28.6894 28.4395H26.793V30.3359H28.6894V28.4395Z" fill="#8619EC"/>
<path d="M28.6894 30.3374H26.793V32.2338H28.6894V30.3374Z" fill="#8619EC"/>
<path d="M4.02487 37.9261H2.12842V39.8226H4.02487V37.9261Z" fill="#8619EC"/>
<path d="M22.9965 39.8225H21.1001V41.719H22.9965V39.8225Z" fill="#8619EC"/>
<path d="M5.92282 41.7205H4.02637V43.6169H5.92282V41.7205Z" fill="#8619EC"/>
<path d="M9.71725 41.7205H7.8208V43.6169H9.71725V41.7205Z" fill="#8619EC"/>
<path d="M19.2026 43.6169H17.3062V45.5134H19.2026V43.6169Z" fill="#8619EC"/>
<path d="M21.101 43.6169H19.2046V45.5134H21.101V43.6169Z" fill="#8619EC"/>
<path d="M17.3056 47.4113H15.4092V49.3077H17.3056V47.4113Z" fill="#8619EC"/>
<path d="M9.71725 49.3092H7.8208V51.2057H9.71725V49.3092Z" fill="#8619EC"/>
<path d="M15.4082 49.3092H13.5117V51.2057H15.4082V49.3092Z" fill="#8619EC"/>
<path d="M17.3056 49.3092H15.4092V51.2057H17.3056V49.3092Z" fill="#8619EC"/>
<path d="M11.6142 51.2057H9.71777V53.1021H11.6142V51.2057Z" fill="#8619EC"/>
<path d="M13.5117 51.2057H11.6152V53.1021H13.5117V51.2057Z" fill="#8619EC"/>
<path d="M9.71725 28.4395H7.8208V30.3359H9.71725V28.4395Z" fill="#8619EC"/>
<path d="M26.7915 34.1317H24.895V36.0282H26.7915V34.1317Z" fill="#8619EC"/>
<path d="M9.71725 22.7574H7.8208V24.6539H9.71725V22.7574Z" fill="#6420AC"/>
<path d="M13.5117 22.7574H11.6152V24.6539H13.5117V22.7574Z" fill="#6420AC"/>
<path d="M7.81881 24.6451H5.92236V26.5416H7.81881V24.6451Z" fill="#6420AC"/>
<path d="M11.6142 26.543H9.71777V28.4394H11.6142V26.543Z" fill="#6420AC"/>
<path d="M11.6142 28.4395H9.71777V30.3359H11.6142V28.4395Z" fill="#6420AC"/>
<path d="M26.7915 28.4395H24.895V30.3359H26.7915V28.4395Z" fill="#6420AC"/>
<path d="M13.5117 30.3374H11.6152V32.2338H13.5117V30.3374Z" fill="#6420AC"/>
<path d="M13.5117 32.2338H11.6152V34.1303H13.5117V32.2338Z" fill="#6420AC"/>
<path d="M28.6894 32.2338H26.793V34.1303H28.6894V32.2338Z" fill="#6420AC"/>
<path d="M9.71725 34.1317H7.8208V36.0282H9.71725V34.1317Z" fill="#6420AC"/>
<path d="M19.2026 34.1317H17.3062V36.0282H19.2026V34.1317Z" fill="#6420AC"/>
<path d="M4.02487 36.0282H2.12842V37.9247H4.02487V36.0282Z" fill="#6420AC"/>
<path d="M11.6142 36.0282H9.71777V37.9247H11.6142V36.0282Z" fill="#6420AC"/>
<path d="M21.101 36.0282H19.2046V37.9247H21.101V36.0282Z" fill="#6420AC"/>
<path d="M22.9965 37.9261H21.1001V39.8226H22.9965V37.9261Z" fill="#6420AC"/>
<path d="M4.02487 39.8225H2.12842V41.719H4.02487V39.8225Z" fill="#6420AC"/>
<path d="M9.71725 39.8225H7.8208V41.719H9.71725V39.8225Z" fill="#6420AC"/>
<path d="M11.6142 39.8225H9.71777V41.719H11.6142V39.8225Z" fill="#6420AC"/>
<path d="M7.81881 41.7205H5.92236V43.6169H7.81881V41.7205Z" fill="#6420AC"/>
<path d="M22.9965 41.7205H21.1001V43.6169H22.9965V41.7205Z" fill="#6420AC"/>
<path d="M17.3056 43.6169H15.4092V45.5134H17.3056V43.6169Z" fill="#6420AC"/>
<path d="M11.6142 49.3092H9.71777V51.2057H11.6142V49.3092Z" fill="#6420AC"/>
<path d="M15.4082 51.2057H13.5117V53.1021H15.4082V51.2057Z" fill="#6420AC"/>
<path d="M28.6894 34.1317H26.793V36.0282H28.6894V34.1317Z" fill="#2F0D5F"/>
<path d="M5.96969 20.8551H4.07324V22.7516H5.96969V20.8551Z" fill="#2F0D5F"/>
<path d="M7.86569 20.8551H5.96924V22.7516H7.86569V20.8551Z" fill="#2F0D5F"/>
<path d="M9.76364 20.8551H7.86719V22.7516H9.76364V20.8551Z" fill="#2F0D5F"/>
<path d="M4.02487 22.7574H2.12842V24.6539H4.02487V22.7574Z" fill="#2F0D5F"/>
<path d="M11.6142 22.7574H9.71777V24.6539H11.6142V22.7574Z" fill="#2F0D5F"/>
<path d="M22.9965 22.7574H21.1001V24.6539H22.9965V22.7574Z" fill="#2F0D5F"/>
<path d="M13.5117 20.8551H11.6152V22.7516H13.5117V20.8551Z" fill="#2F0D5F"/>
<path d="M15.4082 20.8551H13.5117V22.7516H15.4082V20.8551Z" fill="#2F0D5F"/>
<path d="M17.3056 20.8551H15.4092V22.7516H17.3056V20.8551Z" fill="#2F0D5F"/>
<path d="M19.2026 20.8551H17.3062V22.7516H19.2026V20.8551Z" fill="#2F0D5F"/>
<path d="M21.101 20.8551H19.2046V22.7516H21.101V20.8551Z" fill="#2F0D5F"/>
<path d="M21.101 15.1877H19.2046V17.0841H21.101V15.1877Z" fill="#2F0D5F"/>
<path d="M22.9965 15.1877H21.1001V17.0841H22.9965V15.1877Z" fill="#2F0D5F"/>
<path d="M22.9965 18.9733H21.1001V20.8697H22.9965V18.9733Z" fill="#2F0D5F"/>
<path d="M19.2026 18.9733H17.3062V20.8697H19.2026V18.9733Z" fill="#2F0D5F"/>
<path d="M19.2026 17.09H17.3062V18.9864H19.2026V17.09Z" fill="#2F0D5F"/>
<path d="M24.8945 18.9733H22.998V20.8697H24.8945V18.9733Z" fill="#2F0D5F"/>
<path d="M24.8945 13.2898H22.998V15.1862H24.8945V13.2898Z" fill="#2F0D5F"/>
<path d="M26.7915 11.3933H24.895V13.2898H26.7915V11.3933Z" fill="#2F0D5F"/>
<path d="M26.7915 18.9733H24.895V20.8697H26.7915V18.9733Z" fill="#2F0D5F"/>
<path d="M28.6894 18.9733H26.793V20.8697H28.6894V18.9733Z" fill="#2F0D5F"/>
<path d="M30.5849 18.9733H28.6885V20.8697H30.5849V18.9733Z" fill="#2F0D5F"/>
<path d="M32.4834 20.8551H30.5869V22.7516H32.4834V20.8551Z" fill="#2F0D5F"/>
<path d="M34.3798 22.7574H32.4834V24.6539H34.3798V22.7574Z" fill="#2F0D5F"/>
<path d="M2.12838 24.6451H0.231934V26.5416H2.12838V24.6451Z" fill="#2F0D5F"/>
<path d="M13.5117 24.6451H11.6152V26.5416H13.5117V24.6451Z" fill="#2F0D5F"/>
<path d="M22.9965 24.6451H21.1001V26.5416H22.9965V24.6451Z" fill="#2F0D5F"/>
<path d="M24.8945 24.6451H22.998V26.5416H24.8945V24.6451Z" fill="#2F0D5F"/>
<path d="M26.7915 24.6451H24.895V26.5416H26.7915V24.6451Z" fill="#2F0D5F"/>
<path d="M2.12838 26.543H0.231934V28.4394H2.12838V26.543Z" fill="#2F0D5F"/>
<path d="M13.5117 26.543H11.6152V28.4394H13.5117V26.543Z" fill="#2F0D5F"/>
<path d="M21.101 26.543H19.2046V28.4394H21.101V26.543Z" fill="#2F0D5F"/>
<path d="M28.6894 26.543H26.793V28.4394H28.6894V26.543Z" fill="#2F0D5F"/>
<path d="M30.5849 26.543H28.6885V28.4394H30.5849V26.543Z" fill="#2F0D5F"/>
<path d="M2.12838 28.4395H0.231934V30.3359H2.12838V28.4395Z" fill="#2F0D5F"/>
<path d="M13.5117 28.4395H11.6152V30.3359H13.5117V28.4395Z" fill="#2F0D5F"/>
<path d="M19.2026 28.4395H17.3062V30.3359H19.2026V28.4395Z" fill="#2F0D5F"/>
<path d="M30.5849 28.4395H28.6885V30.3359H30.5849V28.4395Z" fill="#2F0D5F"/>
<path d="M4.02487 30.3374H2.12842V32.2338H4.02487V30.3374Z" fill="#2F0D5F"/>
<path d="M11.6142 30.3374H9.71777V32.2338H11.6142V30.3374Z" fill="#2F0D5F"/>
<path d="M15.4082 30.3374H13.5117V32.2338H15.4082V30.3374Z" fill="#2F0D5F"/>
<path d="M17.3056 30.3374H15.4092V32.2338H17.3056V30.3374Z" fill="#2F0D5F"/>
<path d="M30.5849 30.3374H28.6885V32.2338H30.5849V30.3374Z" fill="#2F0D5F"/>
<path d="M5.92282 32.2338H4.02637V34.1303H5.92282V32.2338Z" fill="#2F0D5F"/>
<path d="M7.81881 32.2338H5.92236V34.1303H7.81881V32.2338Z" fill="#2F0D5F"/>
<path d="M9.71725 32.2338H7.8208V34.1303H9.71725V32.2338Z" fill="#2F0D5F"/>
<path d="M19.2026 32.2338H17.3062V34.1303H19.2026V32.2338Z" fill="#2F0D5F"/>
<path d="M30.5849 32.2338H28.6885V34.1303H30.5849V32.2338Z" fill="#2F0D5F"/>
<path d="M4.02487 34.1317H2.12842V36.0282H4.02487V34.1317Z" fill="#2F0D5F"/>
<path d="M11.6142 34.1317H9.71777V36.0282H11.6142V34.1317Z" fill="#2F0D5F"/>
<path d="M13.5117 34.1317H11.6152V36.0282H13.5117V34.1317Z" fill="#2F0D5F"/>
<path d="M17.3056 34.1317H15.4092V36.0282H17.3056V34.1317Z" fill="#2F0D5F"/>
<path d="M21.101 34.1317H19.2046V36.0282H21.101V34.1317Z" fill="#2F0D5F"/>
<path d="M2.12838 36.0282H0.231934V37.9247H2.12838V36.0282Z" fill="#2F0D5F"/>
<path d="M15.4082 36.0282H13.5117V37.9247H15.4082V36.0282Z" fill="#2F0D5F"/>
<path d="M22.9965 36.0282H21.1001V37.9247H22.9965V36.0282Z" fill="#2F0D5F"/>
<path d="M24.8945 36.0282H22.998V37.9247H24.8945V36.0282Z" fill="#2F0D5F"/>
<path d="M26.7915 36.0282H24.895V37.9247H26.7915V36.0282Z" fill="#2F0D5F"/>
<path d="M2.12838 37.9261H0.231934V39.8225H2.12838V37.9261Z" fill="#2F0D5F"/>
<path d="M13.5117 37.9261H11.6152V39.8225H13.5117V37.9261Z" fill="#2F0D5F"/>
<path d="M24.8945 37.9261H22.998V39.8225H24.8945V37.9261Z" fill="#2F0D5F"/>
<path d="M2.12838 39.8225H0.231934V41.719H2.12838V39.8225Z" fill="#2F0D5F"/>
<path d="M13.5117 39.8225H11.6152V41.719H13.5117V39.8225Z" fill="#2F0D5F"/>
<path d="M24.8945 39.8225H22.998V41.719H24.8945V39.8225Z" fill="#2F0D5F"/>
<path d="M4.02487 41.7205H2.12842V43.6169H4.02487V41.7205Z" fill="#2F0D5F"/>
<path d="M11.6142 41.7205H9.71777V43.6169H11.6142V41.7205Z" fill="#2F0D5F"/>
<path d="M13.5117 41.7205H11.6152V43.6169H13.5117V41.7205Z" fill="#2F0D5F"/>
<path d="M5.92282 43.6169H4.02637V45.5134H5.92282V43.6169Z" fill="#2F0D5F"/>
<path d="M7.81881 43.6169H5.92236V45.5134H7.81881V43.6169Z" fill="#2F0D5F"/>
<path d="M9.71725 43.6169H7.8208V45.5134H9.71725V43.6169Z" fill="#2F0D5F"/>
<path d="M15.4082 43.6169H13.5117V45.5134H15.4082V43.6169Z" fill="#2F0D5F"/>
<path d="M7.81881 45.5148H5.92236V47.4112H7.81881V45.5148Z" fill="#2F0D5F"/>
<path d="M17.3056 45.5148H15.4092V47.4112H17.3056V45.5148Z" fill="#2F0D5F"/>
<path d="M19.2026 45.5148H17.3062V47.4112H19.2026V45.5148Z" fill="#2F0D5F"/>
<path d="M21.101 45.5148H19.2046V47.4112H21.101V45.5148Z" fill="#2F0D5F"/>
<path d="M7.81881 47.4113H5.92236V49.3077H7.81881V47.4113Z" fill="#2F0D5F"/>
<path d="M19.2026 47.4113H17.3062V49.3077H19.2026V47.4113Z" fill="#2F0D5F"/>
<path d="M7.81881 49.3092H5.92236V51.2056H7.81881V49.3092Z" fill="#2F0D5F"/>
<path d="M9.71725 51.2056H7.8208V53.1021H9.71725V51.2056Z" fill="#2F0D5F"/>
<path d="M11.6142 53.1021H9.71777V54.9986H11.6142V53.1021Z" fill="#2F0D5F"/>
<path d="M13.5117 53.1021H11.6152V54.9986H13.5117V53.1021Z" fill="#2F0D5F"/>
<path d="M15.4082 53.1021H13.5117V54.9986H15.4082V53.1021Z" fill="#2F0D5F"/>
<path d="M17.3056 51.2056H15.4092V53.1021H17.3056V51.2056Z" fill="#2F0D5F"/>
<path d="M19.2026 49.3092H17.3062V51.2056H19.2026V49.3092Z" fill="#2F0D5F"/>
<path d="M22.9965 43.6169H21.1001V45.5134H22.9965V43.6169Z" fill="#2F0D5F"/>
<path d="M24.8945 41.7205H22.998V43.6169H24.8945V41.7205Z" fill="#2F0D5F"/>
<path d="M32.4834 24.6451H30.5869V26.5416H32.4834V24.6451Z" fill="#2F0D5F"/>
<path d="M21.101 22.753H19.2046V24.6495H21.101V22.753Z" fill="#451582"/>
<path d="M19.2026 24.6407H17.3062V26.5371H19.2026V24.6407Z" fill="#451582"/>
<path d="M21.101 24.6407H19.2046V26.5371H21.101V24.6407Z" fill="#451582"/>
<path d="M17.3056 26.5386H15.4092V28.4351H17.3056V26.5386Z" fill="#451582"/>
<path d="M22.9965 26.5386H21.1001V28.4351H22.9965V26.5386Z" fill="#451582"/>
<path d="M15.4082 28.4351H13.5117V30.3315H15.4082V28.4351Z" fill="#451582"/>
<path d="M17.3056 28.4351H15.4092V30.3315H17.3056V28.4351Z" fill="#451582"/>
<path d="M15.4082 32.2294H13.5117V34.1259H15.4082V32.2294Z" fill="#451582"/>
<path d="M17.3056 32.2294H15.4092V34.1259H17.3056V32.2294Z" fill="#451582"/>
<path d="M15.4082 34.1259H13.5117V36.0223H15.4082V34.1259Z" fill="#451582"/>
<path d="M13.5117 36.0238H11.6152V37.9202H13.5117V36.0238Z" fill="#451582"/>
<path d="M30.6807 1.89648L32.5771 1.89648V3.34978e-05L30.6807 3.34978e-05V1.89648Z" fill="#6420AC"/>
<path d="M28.7827 1.89648L30.6792 1.89648V3.34978e-05L28.7827 3.34978e-05V1.89648Z" fill="#6420AC"/>
<path d="M26.8868 1.89648L28.7832 1.89648V3.34978e-05L26.8868 3.34978e-05V1.89648Z" fill="#6420AC"/>
<path d="M24.9888 1.89648L26.8853 1.89648V3.34978e-05L24.9888 3.34978e-05V1.89648Z" fill="#2F0D5F"/>
<path d="M32.5772 3.79874L34.4736 3.79874V1.90229L32.5772 1.90229V3.79874Z" fill="#6420AC"/>
<path d="M34.4751 5.68646H36.3716V3.79001H34.4751V5.68646Z" fill="#6420AC"/>
<path d="M34.4751 7.58438H36.3716V5.68793H34.4751V7.58438Z" fill="#6420AC"/>
<path d="M36.3711 9.48077H38.2676V7.58432H36.3711V9.48077Z" fill="#6420AC"/>
<path d="M36.3711 11.3787H38.2676V9.48227H36.3711V11.3787Z" fill="#6420AC"/>
<path d="M36.3711 13.2708H38.2676V11.3743H36.3711V13.2708Z" fill="#6420AC"/>
<path d="M36.3711 15.1877H38.2676V13.2913H36.3711V15.1877Z" fill="#2F0D5F"/>
<path d="M26.792 7.58438H28.6885V5.68793H26.792V7.58438Z" fill="#6420AC"/>
<path d="M24.8965 7.58438H26.793V5.68793H24.8965V7.58438Z" fill="#6420AC"/>
<path d="M28.7368 9.4852H30.6333V7.58875H28.7368V9.4852Z" fill="#6420AC"/>
<path d="M30.6343 11.3743H32.5308V9.47788H30.6343V11.3743Z" fill="#6420AC"/>
<path d="M30.6343 13.2708H32.5308V11.3743H30.6343V13.2708Z" fill="#6420AC"/>
<path d="M42.5397 28.4131H40.0428V36.8683H42.5397V34.9119H41.3066V33.1221H44.3149V37.1546L42.8261 38.6595H39.7871L38.2822 37.1546V28.1282L39.7871 26.6234H42.8261L44.3149 28.1282V30.0393H42.5397V28.4146V28.4131Z" fill="white"/>
<path d="M51.3271 32.5947L49.8076 34.0996L51.3271 38.6581H49.4555L47.9463 34.0996H47.0711V38.6581H45.2959V26.6234H49.8398L51.3286 28.1282V32.5962L51.3271 32.5947ZM49.5666 28.4117H47.0696V32.2923H49.5666V28.4117Z" fill="white"/>
<path d="M54.3347 38.6581H52.5303L54.4706 26.6234H56.6373L58.563 38.6581H56.7586L56.4576 36.6725H54.6532L54.3376 38.6581H54.3347ZM56.1698 34.9119L55.5532 31.1205L54.9366 34.9119H56.1698Z" fill="white"/>
<path d="M65.6626 32.5947L64.1679 34.0996H61.4051V38.6581H59.6299V26.6234H64.1738L65.6626 28.1282V32.5962V32.5947ZM63.902 28.4117H61.4051V32.2923H63.902V28.4117Z" fill="white"/>
<path d="M72.5674 28.4131H68.2952V31.7677H70.7922V33.5429H68.2952V36.8683H72.5674V38.6581H66.5347V26.6234H72.5674V28.4131Z" fill="white"/>
<path d="M37.0039 47.0654L35.4844 48.5702L37.0039 53.1287H35.1323L33.623 48.5702H32.7478V53.1287H30.9727V41.094H35.5165L37.0054 42.5989V47.0668L37.0039 47.0654ZM35.2433 42.8824H32.7464V46.7629H35.2433V42.8824Z" fill="white"/>
<path d="M40.0129 53.1269H38.2085L40.1488 41.0922H42.3155L44.2412 53.1269H42.4368L42.1358 51.1414H40.3314L40.0158 53.1269H40.0129ZM41.848 49.3808L41.2314 45.5894L40.6149 49.3808H41.848Z" fill="white"/>
<path d="M51.3398 42.5957V51.6221L49.8203 53.1269H45.3071V41.0922H49.8203L51.3398 42.5971V42.5957ZM49.5646 42.882H47.0677V51.3371H49.5646V42.882Z" fill="white"/>
<path d="M54.3191 53.1269H52.5146L54.4549 41.0922H56.6217L58.5474 53.1269H56.7429L56.442 51.1414H54.6376L54.322 53.1269H54.3191ZM56.1541 49.3808L55.5376 45.5894L54.921 49.3808H56.1541Z" fill="white"/>
<path d="M65.647 47.0651L64.1275 48.5699L65.647 53.1284H63.7753L62.2661 48.5699H61.3909V53.1284H59.6157V41.0937H64.1596L65.6484 42.5986V47.0665L65.647 47.0651ZM63.8864 42.8821H61.3894V46.7626H63.8864V42.8821Z" fill="white"/>
<path d="M68.6565 53.1269H66.8521L68.7923 41.0922H70.9591L72.8848 53.1269H71.0803L70.7794 51.1414H68.975L68.6594 53.1269H68.6565ZM70.4915 49.3808L69.875 45.5894L69.2584 49.3808H70.4915Z" fill="#8619EC"/>
<path d="M73.9512 41.0922H75.741V53.1269H73.9512V41.0922Z" fill="#8619EC"/>
</svg>
