<svg width="20" height="20" viewBox="0 0 20 20" fill="none" xmlns="http://www.w3.org/2000/svg">
<path d="M15.9522 14.1669V16.5479C15.9522 16.8636 15.8268 17.1664 15.6035 17.3896C15.3803 17.6129 15.0775 17.7383 14.7617 17.7383H3.45219C3.13646 17.7383 2.83366 17.6129 2.6104 17.3896C2.38714 17.1664 2.26172 16.8636 2.26172 16.5479V7.61928C2.26172 5.64684 3.8607 4.04785 5.83315 4.04785H13.5712V7.02404" stroke="white" stroke-linecap="round" stroke-linejoin="round"/>
<path d="M17.1428 10.5952H12.9761C12.6474 10.5952 12.3809 10.8617 12.3809 11.1905V13.5714C12.3809 13.9001 12.6474 14.1666 12.9761 14.1666H17.1428C17.4715 14.1666 17.738 13.9001 17.738 13.5714V11.1905C17.738 10.8617 17.4715 10.5952 17.1428 10.5952Z" stroke="white" stroke-linecap="round" stroke-linejoin="round"/>
<path d="M15.9525 10.5954V8.2144C15.9525 7.89867 15.8271 7.59587 15.6039 7.37261C15.3806 7.14935 15.0778 7.02393 14.7621 7.02393H13.5716H5.8335" stroke="white" stroke-linecap="round" stroke-linejoin="round"/>
</svg>
