<svg width="20" height="20" viewBox="0 0 20 20" fill="none" xmlns="http://www.w3.org/2000/svg">
<path d="M14.7621 8.21436H5.23833C4.58085 8.21436 4.04785 8.74735 4.04785 9.40483V16.5477C4.04785 17.2052 4.58085 17.7382 5.23833 17.7382H14.7621C15.4196 17.7382 15.9526 17.2052 15.9526 16.5477V9.40483C15.9526 8.74735 15.4196 8.21436 14.7621 8.21436Z" stroke="#9CE76E" stroke-linecap="round" stroke-linejoin="round"/>
<path d="M14.1668 8.21434V6.42863C14.1668 5.32356 13.7278 4.26375 12.9464 3.48235C12.165 2.70095 11.1052 2.26196 10.0002 2.26196C8.89509 2.26196 7.83529 2.70095 7.05388 3.48235C6.27248 4.26375 5.8335 5.32356 5.8335 6.42863V8.21434" stroke="#9CE76E" stroke-linecap="round" stroke-linejoin="round"/>
<path d="M10 13.5713C10.3288 13.5713 10.5953 13.3048 10.5953 12.9761C10.5953 12.6474 10.3288 12.3809 10 12.3809C9.67128 12.3809 9.40479 12.6474 9.40479 12.9761C9.40479 13.3048 9.67128 13.5713 10 13.5713Z" stroke="#9CE76E" stroke-linecap="round" stroke-linejoin="round"/>
</svg>
