<svg width="20" height="20" viewBox="0 0 20 20" fill="none" xmlns="http://www.w3.org/2000/svg">
<path d="M17.0356 8.21423H2.9642C2.29753 8.21423 2.01182 7.48804 2.53563 7.1428L9.57134 2.53565C9.70124 2.45924 9.84921 2.41895 9.99992 2.41895C10.1506 2.41895 10.2986 2.45924 10.4285 2.53565L17.4642 7.1428C17.988 7.48804 17.7023 8.21423 17.0356 8.21423Z" stroke="#9CE76E" stroke-linecap="round" stroke-linejoin="round"/>
<path d="M17.1427 14.7617H2.85696C2.52822 14.7617 2.26172 15.0282 2.26172 15.357V17.1427C2.26172 17.4714 2.52822 17.7379 2.85696 17.7379H17.1427C17.4714 17.7379 17.7379 17.4714 17.7379 17.1427V15.357C17.7379 15.0282 17.4714 14.7617 17.1427 14.7617Z" stroke="#9CE76E" stroke-linecap="round" stroke-linejoin="round"/>
<path d="M4.04785 8.21436V14.762" stroke="#9CE76E" stroke-linecap="round" stroke-linejoin="round"/>
<path d="M8.01611 8.21436V14.762" stroke="#9CE76E" stroke-linecap="round" stroke-linejoin="round"/>
<path d="M11.9839 8.21436V14.762" stroke="#9CE76E" stroke-linecap="round" stroke-linejoin="round"/>
<path d="M15.9521 8.21436V14.762" stroke="#9CE76E" stroke-linecap="round" stroke-linejoin="round"/>
</svg>
