<svg width="20" height="20" viewBox="0 0 20 20" fill="none" xmlns="http://www.w3.org/2000/svg">
<path d="M15.9522 14.1667V16.5476C15.9522 16.8633 15.8268 17.1661 15.6035 17.3894C15.3803 17.6127 15.0775 17.7381 14.7617 17.7381H3.45219C3.13646 17.7381 2.83366 17.6127 2.6104 17.3894C2.38714 17.1661 2.26172 16.8633 2.26172 16.5476V7.61904C2.26172 5.64659 3.8607 4.04761 5.83315 4.04761H13.5712V7.0238" stroke="#9CE76E" stroke-linecap="round" stroke-linejoin="round"/>
<path d="M17.1428 10.5952H12.9761C12.6474 10.5952 12.3809 10.8617 12.3809 11.1905V13.5714C12.3809 13.9001 12.6474 14.1666 12.9761 14.1666H17.1428C17.4715 14.1666 17.738 13.9001 17.738 13.5714V11.1905C17.738 10.8617 17.4715 10.5952 17.1428 10.5952Z" stroke="#9CE76E" stroke-linecap="round" stroke-linejoin="round"/>
<path d="M15.9525 10.5952V8.21428C15.9525 7.89855 15.8271 7.59574 15.6039 7.37249C15.3806 7.14923 15.0778 7.0238 14.7621 7.0238H13.5716H5.8335" stroke="#9CE76E" stroke-linecap="round" stroke-linejoin="round"/>
</svg>
