<svg width="387" height="198" viewBox="0 0 387 198" fill="none" xmlns="http://www.w3.org/2000/svg">
<g clip-path="url(#clip0_196_2858)">
<path d="M303.146 158.447C317.443 138.146 336.196 135.29 339.766 134.923C340.014 138.504 340.396 157.469 322.829 175.017C312.154 185.681 300.673 184.277 298.534 183.901C297.799 181.856 294.458 170.783 303.146 158.447Z" fill="#CAE68E" stroke="#110D14"/>
<path d="M322.829 175.017C312.897 184.939 302.267 184.414 299.112 183.99L339.806 135.653C340.002 140.591 339.427 158.437 322.829 175.017Z" fill="#66AD66" stroke="#110D14"/>
<path d="M296.865 185.884L298.164 184.34C298.153 184.311 298.138 184.272 298.121 184.229C297.282 185.323 296.865 185.884 296.865 185.884Z" fill="white" stroke="#110D14" stroke-miterlimit="10" stroke-linecap="round" stroke-linejoin="round"/>
<path d="M266.097 174.008L266.591 174.09C273.319 133.395 299.695 116.02 303.956 113.455C306.465 117.749 321.282 145.643 307.674 184.581C299.397 208.268 280.999 214.161 278.033 214.969C275.817 212.838 262.498 198.846 266.591 174.09L266.097 174.008Z" fill="#CAE68E" stroke="#110D14"/>
<path d="M278.59 214.808L304.312 114.08C307.602 119.991 320.739 147.195 307.674 184.581C299.81 207.084 282.813 213.527 278.59 214.808Z" fill="#66AD66" stroke="#110D14"/>
<path d="M345.783 162.109C345.712 162.509 345.607 163.074 345.461 163.779C345.147 165.292 344.645 167.452 343.894 170.035C342.392 175.203 339.895 182.052 335.919 188.79C328.843 200.78 314.634 206.59 301.14 203.144L282.934 198.495C286.081 193.263 295.571 177.552 313.356 171.585C325.371 167.554 333.66 165.15 338.941 163.754C341.581 163.057 343.47 162.611 344.696 162.34C345.146 162.241 345.507 162.165 345.783 162.109Z" fill="#CAE68E" stroke="#110D14"/>
<path d="M301.14 203.144L285.37 199.117C300.591 197.658 315.447 188.869 326.7 180.229C332.729 175.6 337.744 170.998 341.252 167.554C343.006 165.831 344.384 164.397 345.324 163.393C345.42 163.291 345.511 163.193 345.598 163.1C345.557 163.309 345.511 163.535 345.461 163.779C345.147 165.292 344.645 167.452 343.894 170.035C342.392 175.203 339.896 182.052 335.919 188.791C328.842 200.781 314.635 206.59 301.14 203.144Z" fill="#66AD66" stroke="#110D14"/>
</g>
<path d="M122.703 126.498C131.533 103.291 148.996 95.8835 152.365 94.6448C153.491 98.0532 158.553 116.334 145.874 137.683C138.17 150.656 126.698 152.137 124.532 152.302C123.314 150.503 117.338 140.6 122.703 126.498Z" fill="#CAE68E" stroke="#110D14"/>
<path d="M145.874 137.683C138.705 149.754 128.276 151.875 125.115 152.245L152.583 95.3423C153.995 100.079 157.854 117.511 145.874 137.683Z" fill="#66AD66" stroke="#110D14"/>
<path d="M123.406 154.636L124.283 152.819C124.265 152.793 124.241 152.76 124.214 152.722C123.671 153.989 123.406 154.636 123.406 154.636Z" fill="white" stroke="#110D14" stroke-miterlimit="10" stroke-linecap="round" stroke-linejoin="round"/>
<path d="M78.8377 137.683C66.159 116.334 71.2212 98.0532 72.3469 94.6448C75.716 95.8834 93.1786 103.291 102.008 126.498C107.374 140.6 101.397 150.503 100.179 152.302C98.0134 152.137 86.5421 150.656 78.8377 137.683Z" fill="#CAE68E" stroke="#110D14"/>
<path d="M73.0866 94.9306C77.7481 96.8132 93.7002 104.661 102.008 126.498C106.915 139.393 102.339 148.775 100.588 151.663C97.5891 144.719 88.7864 124.99 73.0866 94.9306Z" fill="#66AD66" stroke="#110D14"/>
<path d="M90.6566 150.742L91.1547 150.699C87.6045 109.605 108.862 86.2446 112.356 82.7048C115.85 86.2446 137.107 109.605 133.557 150.699C131.397 175.698 115.03 185.96 112.356 187.477C109.682 185.96 93.3143 175.698 91.1547 150.699L90.6566 150.742Z" fill="#CAE68E" stroke="#110D14"/>
<path d="M112.856 187.183V83.2227C117.506 88.1359 136.966 111.244 133.557 150.699C131.505 174.449 116.63 184.897 112.856 187.183Z" fill="#66AD66" stroke="#110D14"/>
<path d="M164.92 119.497C164.951 119.903 164.988 120.475 165.021 121.195C165.092 122.738 165.14 124.955 165.052 127.644C164.875 133.023 164.15 140.277 161.965 147.789C158.075 161.157 145.746 170.302 131.818 170.302H113.029C114.783 164.454 120.091 146.883 135.847 136.702C146.491 129.823 153.927 125.443 158.698 122.784C161.084 121.455 162.803 120.556 163.924 119.99C164.336 119.782 164.667 119.619 164.92 119.497Z" fill="#CAE68E" stroke="#110D14"/>
<path d="M131.818 170.302H115.542C129.929 165.123 142.149 152.93 150.914 141.775C155.611 135.798 159.331 130.099 161.877 125.893C163.151 123.79 164.131 122.06 164.794 120.855C164.861 120.732 164.925 120.615 164.986 120.503C164.998 120.715 165.01 120.946 165.021 121.195C165.092 122.738 165.14 124.955 165.052 127.644C164.875 133.023 164.151 140.277 161.965 147.79C158.075 161.158 145.746 170.302 131.818 170.302Z" fill="#66AD66" stroke="#110D14"/>
<path d="M59.7916 119.497C60.0452 119.619 60.3759 119.782 60.7873 119.99C61.9083 120.556 63.6277 121.455 66.0134 122.784C70.7849 125.443 78.2209 129.823 88.8652 136.702C104.621 146.883 109.928 164.454 111.683 170.302H92.8934C78.9656 170.302 66.6367 161.157 62.7472 147.789C60.5613 140.277 59.8369 133.023 59.6601 127.644C59.5717 124.955 59.6202 122.738 59.6906 121.195C59.7234 120.475 59.7609 119.903 59.7916 119.497Z" fill="#CAE68E" stroke="#110D14"/>
<path d="M60.5092 119.85C60.5974 119.894 60.69 119.941 60.7872 119.99C61.9082 120.556 63.6276 121.455 66.0133 122.784C70.7848 125.443 78.2209 129.823 88.8653 136.702C104.411 146.747 109.785 163.986 111.611 170.061C96.5947 165.467 83.7509 152.824 74.5839 141.158C69.9184 135.22 66.2209 129.555 63.6898 125.375C62.4245 123.286 61.4512 121.568 60.7947 120.373C60.6917 120.186 60.5965 120.011 60.5092 119.85Z" fill="#66AD66" stroke="#110D14"/>
<path d="M126.43 216.5H98.2821C91.0571 216.5 84.8594 211.349 83.5384 204.245L77.6138 172.386H147.098L141.174 204.245C139.852 211.349 133.655 216.5 126.43 216.5Z" fill="#FEC37D" stroke="#110D14"/>
<path d="M148.932 178.678H75.7799C73.0918 178.678 70.9126 176.499 70.9126 173.811C70.9126 171.123 73.0918 168.944 75.7799 168.944H148.932C151.62 168.944 153.8 171.123 153.8 173.811C153.799 176.499 151.62 178.678 148.932 178.678Z" fill="#F2A559" stroke="#110D14"/>
<path d="M242.154 59.3961V105.891C242.154 148.234 214.918 185.156 176.014 195.553C137.175 185.19 109.939 148.234 109.939 105.891V61.0548L117.799 53.1808C148.383 49.5435 157.846 43.4745 176.046 29.1313C194.247 43.4745 211.57 55.7588 242.154 59.3961Z" fill="#F06A2D"/>
<path d="M176.014 195.553C214.918 185.156 242.154 148.234 242.154 105.891V59.3961C211.57 55.7588 194.247 43.4745 176.046 29.1313C157.846 43.4745 148.383 49.5435 117.799 53.1808L109.939 61.0548V105.891C109.939 148.234 137.175 185.19 176.014 195.553ZM176.014 195.553L183.614 188.788" stroke="#110D14" stroke-width="1.2"/>
<path d="M249.773 52.6231V99.1183C249.773 141.461 222.537 178.383 183.633 188.78C144.794 178.417 117.558 141.461 117.558 99.1183V52.6231C148.142 48.9859 165.465 36.7015 183.666 22.3584C201.866 36.7015 219.189 48.9859 249.773 52.6231Z" fill="#FFC400" stroke="#110D14" stroke-width="1.2"/>
<path d="M183.665 170.423C154.381 160.609 134.263 131.923 134.263 99.1186V67.6186C154.836 62.8833 169.95 54.1333 183.665 44.1479C197.673 54.4078 212.494 62.9862 233.067 67.6529V99.1529C233.067 131.923 212.949 160.609 183.665 170.423Z" fill="#FEDF50" stroke="#110D14" stroke-width="1.2"/>
<path d="M178.096 125.279L166.154 112.671L172.209 106.254L178.096 112.445L200.05 89.292L206.105 95.6842L178.096 125.279Z" fill="#110D14"/>
<path d="M295.502 60.5691C294.662 64.4429 296.834 68.3371 300.571 69.658C296.697 68.8178 292.803 70.9895 291.482 74.7269C292.322 70.853 290.151 66.9589 286.413 65.6379C290.287 66.4782 294.181 64.3065 295.502 60.5691Z" fill="#FEDF50"/>
<path d="M101.693 17.3706C100.763 20.1214 102.024 23.1345 104.636 24.4032C101.885 23.4731 98.8719 24.7339 97.6032 27.3458C98.5333 24.595 97.2725 21.5819 94.6606 20.3132C97.4113 21.2433 100.424 19.9825 101.693 17.3706Z" fill="#FF7500"/>
<path d="M35.0698 162.145C36.7074 164.542 39.8726 165.348 42.4575 164.025C40.0596 165.663 39.2537 168.828 40.5767 171.413C38.9391 169.015 35.7738 168.209 33.189 169.532C35.5869 167.895 36.3927 164.729 35.0698 162.145Z" fill="#66AD66"/>
<path d="M341.658 38.0361C343.295 40.434 346.461 41.2398 349.045 39.9169C346.647 41.5545 345.842 44.7197 347.165 47.3046C345.527 44.9067 342.362 44.1009 339.777 45.4238C342.175 43.7862 342.981 40.6209 341.658 38.0361Z" fill="white"/>
<path d="M239.592 114.209C235.141 113.628 231.848 116.704 230.208 119.098C230.044 119.312 229.891 119.541 229.75 119.785L186.523 192.23C184.165 196.314 187.113 201.419 191.828 201.419H273.221L273.206 201.454C275.763 201.553 281.369 200.636 283.33 196.184C284.597 193.309 282.354 193.448 279.672 194.431C279.565 193.688 279.315 192.944 278.903 192.23L240.359 119.785C240.228 119.557 240.085 119.341 239.932 119.138C241.942 116.864 242.851 114.634 239.592 114.209Z" fill="#C8353C" stroke="#110D14" stroke-width="0.7"/>
<path d="M236.693 116.999C239.05 112.916 244.945 112.916 247.302 116.999L288.187 187.814C290.545 191.898 287.598 197.002 282.883 197.002H201.112C196.397 197.002 193.45 191.898 195.808 187.814L236.693 116.999Z" fill="#FF5E4A" stroke="#110D14" stroke-width="0.7"/>
<path d="M238.339 128.949C239.938 126.086 244.058 126.086 245.657 128.949L276.128 183.5C277.688 186.293 275.669 189.735 272.469 189.735H211.527C208.327 189.735 206.308 186.293 207.868 183.5L238.339 128.949Z" fill="white" stroke="#110D14" stroke-width="0.7"/>
<path fill-rule="evenodd" clip-rule="evenodd" d="M241.998 168.991C241.476 168.991 241.03 168.546 240.939 167.933L238.27 149.928C237.934 147.661 239.399 145.582 241.332 145.582H242.663C244.596 145.582 246.061 147.661 245.726 149.928L243.056 167.933C242.967 168.546 242.52 168.991 241.998 168.991Z" fill="#110D14"/>
<path fill-rule="evenodd" clip-rule="evenodd" d="M244.441 175.764C244.441 174.419 243.343 173.322 241.998 173.322C240.654 173.322 239.556 174.419 239.556 175.764C239.556 177.109 240.654 178.206 241.998 178.206C243.343 178.206 244.441 177.11 244.441 175.764Z" fill="#110D14"/>
<path d="M222.545 7.31822L281.783 4.16541C288.495 3.80751 294.266 8.97107 294.61 15.6383L296.058 43.7818C296.401 50.449 291.191 56.1955 284.479 56.5534L247.907 58.4992C247.388 60.5727 246.074 64.6076 242.593 68.4134C238.12 73.3012 232.787 74.8411 230.709 75.3272C231.562 74.0221 233.693 70.3776 233.341 65.4857C233.146 62.7662 232.255 60.6576 231.573 59.3684C229.462 59.4806 227.35 59.5928 225.239 59.705C218.527 60.0629 212.756 54.8993 212.413 48.2321L210.964 20.0886C210.623 13.4227 215.833 7.67612 222.545 7.31822Z" fill="white"/>
<path d="M227.77 41.361L245.24 40.5404L244.42 23.0704L226.949 23.891L227.77 41.361ZM245.24 40.5404L262.71 39.7198L261.89 22.2497L244.42 23.0704L245.24 40.5404ZM262.71 39.7198L280.18 38.8991L279.36 21.4291L261.89 22.2497L262.71 39.7198Z" fill="white"/>
<path d="M229.859 75.9237L230.386 75.1171C231.484 73.4396 233.277 69.9616 232.957 65.5144C232.814 63.5185 232.272 61.5868 231.347 59.7672L225.261 60.0917C221.897 60.2707 218.662 59.1249 216.15 56.8639C213.663 54.6236 212.199 51.5655 212.029 48.2545L210.58 20.1095C210.225 13.2121 215.586 7.29229 222.523 6.93277L281.762 3.77996C285.126 3.60101 288.362 4.74674 290.873 7.00778C293.36 9.24808 294.824 12.3062 294.995 15.6172L296.443 43.7622C296.798 50.6581 291.43 56.5729 284.499 56.9392L248.21 58.8714C247.521 61.4856 246.042 65.2178 242.878 68.6756C238.619 73.33 233.481 75.078 230.797 75.7051L229.859 75.9237ZM221.065 7.87953C215.294 8.92423 211.044 14.1045 211.352 20.0703L212.8 48.2153C212.96 51.321 214.333 54.1884 216.667 56.2901C219.024 58.4141 222.061 59.489 225.219 59.3208L231.8 58.9708L231.915 59.1886C232.961 61.1656 233.57 63.2764 233.727 65.4597C234.018 69.4946 232.654 72.7663 231.537 74.7173C234.278 73.9495 238.633 72.1723 242.31 68.1553C245.477 64.6936 246.899 60.9437 247.534 58.4082L247.603 58.1319L284.458 56.1695C290.976 55.8232 296.006 50.2757 295.672 43.8044L294.224 15.6594C294.064 12.5537 292.691 9.68634 290.357 7.58459C288 5.46058 284.962 4.38575 281.805 4.55394L222.566 7.70675C222.056 7.73164 221.555 7.79093 221.065 7.87953Z" fill="#110D14"/>
<defs>
<clipPath id="clip0_196_2858">
<rect width="76" height="107" fill="white" transform="translate(282.33 107.205) rotate(14.3252)"/>
</clipPath>
</defs>
</svg>
