<svg xmlns="http://www.w3.org/2000/svg" width="64" height="64" viewBox="0 0 64 64" fill="none">
  <path d="M36 4H28V8H12V36H4V44H12V60H52V44H60V36H52V8H36V4Z" fill="white"/>
  <path fill-rule="evenodd" clip-rule="evenodd" d="M40 0H24V4H16V8H12V12H8V16H4V24H0V44H4V48H8V56H12V60H16V64H48V60H52V56H56V48H60V44H64V24H60V16H56V12H52V8H48V4H40V0ZM40 4V8H48V12H52V16H56V24H60V44H52V40H12V44H4V24H8V16H12V12H16V8H24V4H40ZM28 44H36V52H40V44H48V48H52V56H48V60H16V56H12V48H16V44H24V52H28V44Z" fill="black"/>
  <path d="M24 4H28V12H24V16H16V8H24V4Z" fill="#8619EC"/>
  <path d="M40 8H48V16H40V12H36V4H40V8Z" fill="#8619EC"/>
  <path d="M16 20H12V16H8V24H4V36H12V32H16V20Z" fill="#8619EC"/>
  <path d="M48 20H52V16H56V24H60V36H52V32H48V20Z" fill="#8619EC"/>
  <path d="M40 24H44V36H40V40H24V36H20V24H24V20H40V24Z" fill="#8619EC"/>
</svg>