<svg width="30" height="30" viewBox="0 0 30 30" fill="none" xmlns="http://www.w3.org/2000/svg">
<path d="M28.4605 7.93481V14.4565H27.2369V15.5436H26.013V16.9975H24.7894V18.8046H23.5658V19.8917H22.3419V20.9785H21.1183V22.0656H19.8944V23.1524H18.6709V24.2395H17.4473V25.3266H16.2234V26.4134H13.7762V25.3266H12.5523V24.2395H11.3287V23.1524H10.1051V22.0656H8.88121V20.9785H7.65762V19.8917H6.43371V18.8046H5.21016V16.9975H3.98657V15.5436H2.76265V14.4565H1.53906V7.93481H2.76265V5.76058H3.98657V4.67378H6.12377V3.58667H10.1051V4.67378H12.5523V5.76058H13.7762V6.84769H16.2234V5.76058H17.4473V4.67378H19.8944V3.58667H23.8758V4.67378H26.013V5.76058H27.2369V7.93481H28.4605Z" fill="#FF7317"/>
<path d="M28.4605 7.93481V14.4565H27.2369V15.5436H26.013V16.9975H24.7894V18.8046H23.5658V19.8917H22.3419V20.9785H21.1183V22.0656H19.8944V23.1524H18.6709V24.2395H17.4473V25.3266H16.2234V26.4134H13.7762V25.3266H12.5523V24.2395H11.3287V23.1524H10.1051V22.0656H8.88121V20.9785H7.65762V19.8917H6.43371V18.8046H5.21016V16.9975H3.98657V15.5436H2.76265V14.4565H1.53906V7.93481H2.76265V5.76058H3.98657V4.67378H6.12377V3.58667H10.1051V4.67378H12.5523V5.76058H13.7762V6.84769H16.2234V5.76058H17.4473V4.67378H19.8944V3.58667H23.8758V4.67378H26.013V5.76058H27.2369V7.93481H28.4605Z" fill="#FF7317"/>
<path d="M16.9572 27.1469H13.0429V26.0601H11.819V24.9729H10.5954V23.8858H9.37182V22.7991H8.14786V21.7119H6.92432V20.6252H5.70036V19.5381H4.47676V17.731H3.25322V16.277H2.02926V15.1899H0.805664V7.20112H2.02926V5.02689H3.25322V3.94014H5.39042V2.85303H10.8389V3.94014H13.286V5.02689H14.51V6.11401H15.4901V5.02689H16.714V3.94014H19.1612V2.85303H24.6096V3.94014H26.7468V5.02689H27.9708V7.20112H29.1943V15.1899H27.9707V16.277H26.7467V17.7309H25.5232V19.538H24.2996V20.6251H23.0756V21.7119H21.8521V22.799H20.6281V23.8858H19.4045V24.9729H18.181V26.0601H16.957V27.1469H16.9572ZM14.51 25.6797H15.4901V24.593H16.714V23.5058H17.9376V22.4187H19.1612V21.332H20.3851V20.2448H21.6087V19.1581H22.8326V18.0709H24.0562V16.2639H25.2798V14.8099H26.5037V13.7228H27.7273V8.66823H26.5037V6.494H25.2798V5.40726H23.1426V4.32014H20.6283V5.40726H18.1812V6.494H16.9572V7.58112H13.043V6.494H11.819V5.40726H9.37187V4.32014H6.85762V5.40726H4.72042V6.494H3.49646V8.66823H2.27287V13.7228H3.49646V14.8099H4.72042V16.2639H5.94397V18.0709H7.16756V19.1581H8.39152V20.2448H9.61507V21.332H10.839V22.4187H12.0626V23.5058H13.2862V24.593H14.5101V25.6797H14.51Z" fill="black"/>
<path d="M5.44807 9.23706H3.98096V12.812H5.44807V9.23706Z" fill="white"/>
<path d="M6.91536 7.76392H5.44824V9.23725H6.91536V7.76392Z" fill="white"/>
</svg>
