<svg xmlns="http://www.w3.org/2000/svg" width="64" height="64" viewBox="0 0 64 64" fill="none">
  <path fill-rule="evenodd" clip-rule="evenodd" d="M8 0H60V4H64V60H60V64H4V60H0V36H4V32H8V24H4V4H8V0ZM12 32V24H48V32H44V36H48V48H52V52H56V56H52V60H8V56H4V40H8V36H24V40H28V36H24V32H12ZM52 40H56V36H48V32H56V28H52V20H60V48H52V40ZM52 20H8V8H12V4H52V8H56V16H52V20Z" fill="black"/>
  <path d="M12 4H52V8H56V16H52V20H8V8H12V4Z" fill="#5BDB57"/>
  <path d="M12 24H48V32H44V36H48V48H52V52H56V56H52V60H8V56H4V40H8V36H24V40H28V36H24V32H12V24Z" fill="#5BDB57"/>
  <path d="M60 20H52V28H56V32H48V36H56V40H52V48H60V20Z" fill="white"/>
</svg>