<svg width="240" height="229" viewBox="0 0 240 229" fill="none" xmlns="http://www.w3.org/2000/svg">
<path d="M169.463 200.636L120 228.822V171.898L169.463 143.988V200.636Z" fill="#FFC400" stroke="#110D14" stroke-width="1.2" stroke-linejoin="round"/>
<path d="M119.722 115.802L70.5352 144.264L119.998 172.45L169.462 143.988L119.722 115.802Z" fill="#FEDF50" stroke="#110D14" stroke-width="1.2" stroke-linejoin="round"/>
<path d="M70.8115 200.636L119.998 228.822V172.45L70.5352 144.265L70.8115 200.636Z" fill="#F06A2D" stroke="#110D14" stroke-width="1.2" stroke-linejoin="round"/>
<path d="M109.463 247.636L60 275.822V218.898L109.463 190.988V247.636Z" fill="#1EA4D8" stroke="#110D14" stroke-width="1.2" stroke-linejoin="round"/>
<path d="M59.7221 162.802L10.5352 191.264L59.9984 219.45L109.462 190.988L59.7221 162.802Z" fill="#67C7EC" stroke="#110D14" stroke-width="1.2" stroke-linejoin="round"/>
<path d="M10.8115 247.636L59.9984 275.822V219.45L10.5352 191.265L10.8115 247.636Z" fill="#276FDA" stroke="#110D14" stroke-width="1.2" stroke-linejoin="round"/>
<path d="M229.463 247.636L180 275.822V218.898L229.463 190.988V247.636Z" fill="#1EA4D8" stroke="#110D14" stroke-width="1.2" stroke-linejoin="round"/>
<path d="M179.722 162.802L130.535 191.264L179.998 219.45L229.462 190.988L179.722 162.802Z" fill="#67C7EC" stroke="#110D14" stroke-width="1.2" stroke-linejoin="round"/>
<path d="M130.811 247.636L179.998 275.822V219.45L130.535 191.265L130.811 247.636Z" fill="#276FDA" stroke="#110D14" stroke-width="1.2" stroke-linejoin="round"/>
<path d="M109.463 91.6362L60 119.822V62.8977L109.463 34.9883V91.6362Z" fill="#FFC400" stroke="#110D14" stroke-width="1.2" stroke-linejoin="round"/>
<path d="M59.7221 6.80176L10.5352 35.2639L59.9984 63.4496L109.462 34.9875L59.7221 6.80176Z" fill="#FEDF50" stroke="#110D14" stroke-width="1.2" stroke-linejoin="round"/>
<path d="M10.8115 91.6362L59.9984 119.822V63.4504L10.5352 35.2646L10.8115 91.6362Z" fill="#F06A2D" stroke="#110D14" stroke-width="1.2" stroke-linejoin="round"/>
</svg>
