<svg width="213" height="46" viewBox="0 0 213 46" fill="none" xmlns="http://www.w3.org/2000/svg">
<g clip-path="url(#clip0_3_8)">
<rect y="42" width="199" height="4" fill="#8619EC"/>
<rect y="42" width="24" height="4" fill="#B66DFF"/>
<rect y="42" width="4" height="4" fill="#CF97FF"/>
<rect x="199" y="38" width="4" height="4" fill="#8619EC"/>
<rect x="203" y="34" width="10" height="4" fill="#CD9AFF"/>
</g>
<path d="M182.286 16.9712V14.1426H179.457V11.3142H176.629V8.48561H173.8H170.972V5.65726H168.143H165.315V2.82864H162.486H159.657V5.65726H156.829V8.48561V11.3142V14.1426V16.9712V19.7996V22.6282V25.4568H159.657V28.2852V31.1138H162.486V33.9421H165.315H168.143H170.972V36.7708H173.8H176.629H179.457V33.9421H176.629V31.1138H173.8V28.2852V25.4568H170.972V22.6282H168.143V19.7996H170.972V22.6282H173.8V25.4568H176.629V28.2852V31.1138H179.457V33.9421H182.286V31.1138H184.124V19.7996H182.286V16.9712Z" fill="#98E75F"/>
<path d="M182.285 28.2852V33.9421H185.114V28.2852H187.942V25.4568H190.771V28.2852H187.942V31.1138V33.9421H185.114V36.7708H187.942H190.771H193.599H196.428V33.9421H199.256V31.1138V28.2852H202.085V25.4568V22.6282V19.7996V16.9712H199.256H196.428H193.599H190.771V19.7996H187.942H185.114V22.6282H182.285V25.4568V28.2852Z" fill="#98E75F"/>
<path d="M190.771 25.4568H187.942V28.2851H190.771V25.4568ZM187.942 31.1138V28.2851H185.114V33.9421H187.942V31.1138ZM190.771 36.7707H185.114V33.9421H182.285V31.1138V28.2851V25.4568V22.6282H181.224H179.457V25.4568V28.2851V31.1138H176.628V33.9421H179.457V36.7707H176.628H173.8H170.971V39.5994H173.8H176.628H179.457H182.285H185.114H187.942H190.771H193.599H196.428V36.7707H193.599H190.771ZM196.428 36.7707H199.256V33.9421H196.428V36.7707ZM199.256 31.1138V33.9421H202.085V28.2851H199.256V31.1138ZM202.085 14.1426H190.771V16.9712H202.085V19.7995V22.6282V25.4568V28.2851H204.913V25.4568V22.6282V19.7995V16.9712V14.1426H202.085ZM182.285 19.7995V22.6282H185.114V19.7995H187.942H190.771V16.9712H187.942H185.114V14.1426H184.124H182.285V16.9712V19.7995ZM168.143 19.7995V22.6282H170.971V19.7995H168.143ZM170.971 22.6282V25.4568H173.8V22.6282H170.971ZM176.628 25.4568H173.8V31.1138H176.628V28.2851V25.4568ZM168.143 33.9421H162.486V36.7707H170.971V33.9421H168.143ZM159.657 31.1138V33.9421H162.486V31.1138H159.657ZM159.657 25.4568H156.829V31.1138H159.657V28.2851V25.4568ZM156.829 19.7995V5.65725H154V25.4568H156.829V22.6282V19.7995ZM159.657 2.82862H165.314V0H156.829V2.82862V5.65725H159.657V2.82862ZM168.143 5.65725H170.971V2.82862H165.314V5.65725H168.143ZM173.8 8.4856H176.628V5.65725H170.971V8.4856H173.8ZM179.457 11.3142V8.4856H176.628V11.3142H179.457ZM182.285 14.1426V11.3142H179.457V14.1426H182.285Z" fill="#38984C"/>
<path d="M196.428 33.9421H199.257V28.2852H196.428V33.9421ZM199.257 16.9712V28.2852H202.085V16.9712H199.257ZM176.628 8.48562H170.971V11.3142H176.605V14.1426H179.433V11.3142H176.628V8.48562ZM165.314 5.65727V8.48562H170.971V5.65727H165.314Z" fill="#5DC74F"/>
<path d="M185.114 19.7996V22.6282H190.771V19.7996H185.114ZM182.286 33.9421H185.114V22.6282H182.286V33.9421ZM170.972 36.7708H173.8V33.9421H170.972V36.7708ZM165.315 31.1138V25.4568H162.486V16.9712H159.657V5.65726H156.829V25.4568H159.657V31.1138H162.486V33.9421H170.972V31.1138H165.315Z" fill="#5DC74F"/>
<defs>
<clipPath id="clip0_3_8">
<rect width="213" height="12" fill="white" transform="translate(0 34)"/>
</clipPath>
</defs>
</svg>
