<svg xmlns="http://www.w3.org/2000/svg" width="64" height="64" viewBox="0 0 64 64" fill="none">
  <path d="M52 4.57153H60V36.5715H56V45.7144H52V50.2858H48V59.4287H12V50.2858H4V45.7144H12V32.0001H20V27.4287H28V18.2858H52V4.57153Z" fill="#F77622"/>
  <path d="M56 0H60V4.57143H56V0Z" fill="black"/>
  <path fill-rule="evenodd" clip-rule="evenodd" d="M56 13.7143V4.57143H52V13.7143H36V18.2857H28V22.8571H20V27.4286H16V32H12V36.5714H8V41.1429H0V50.2857H4V54.8571H8V59.4286H20V64H40V59.4286H48V54.8571H52V50.2857H56V45.7143H60V36.5714H64V22.8571H60V13.7143H64V4.57143H60V13.7143H56ZM48 22.8571H60V36.5714H56V45.7143H52V50.2857H48V54.8571H40V59.4286H20V54.8571H12V50.2857H4V45.7143H12V41.1429H20V36.5714H24V45.7143H20V50.2857H24V45.7143H28V36.5714H32V32H40V41.1429H36V45.7143H40V41.1429H44V27.4286H48V22.8571ZM48 22.8571H40V27.4286H32V32H20V27.4286H28V22.8571H36V18.2857H48V22.8571ZM20 32H16V36.5714H20V32ZM56 13.7143V18.2857H52V13.7143H56Z" fill="black"/>
</svg>