<svg width="20" height="20" viewBox="0 0 20 20" fill="none" xmlns="http://www.w3.org/2000/svg">
<path d="M10.0001 17.7381C14.2737 17.7381 17.7382 14.2736 17.7382 10C17.7382 5.72637 14.2737 2.2619 10.0001 2.2619C5.72643 2.2619 2.26196 5.72637 2.26196 10C2.26196 14.2736 5.72643 17.7381 10.0001 17.7381Z" stroke="white" stroke-linecap="round" stroke-linejoin="round"/>
<path d="M6.42848 10.2976C6.26411 10.2976 6.13086 10.1644 6.13086 10C6.13086 9.83564 6.26411 9.70239 6.42848 9.70239" stroke="white" stroke-linecap="round" stroke-linejoin="round"/>
<path d="M6.42847 10.2976C6.59284 10.2976 6.72609 10.1644 6.72609 10C6.72609 9.83564 6.59284 9.70239 6.42847 9.70239" stroke="white" stroke-linecap="round" stroke-linejoin="round"/>
<path d="M10 10.2976C9.83564 10.2976 9.70239 10.1644 9.70239 10C9.70239 9.83564 9.83564 9.70239 10 9.70239" stroke="white" stroke-linecap="round" stroke-linejoin="round"/>
<path d="M10 10.2976C10.1644 10.2976 10.2976 10.1644 10.2976 10C10.2976 9.83564 10.1644 9.70239 10 9.70239" stroke="white" stroke-linecap="round" stroke-linejoin="round"/>
<path d="M13.5715 10.2976C13.4072 10.2976 13.2739 10.1644 13.2739 10C13.2739 9.83564 13.4072 9.70239 13.5715 9.70239" stroke="white" stroke-linecap="round" stroke-linejoin="round"/>
<path d="M13.5715 10.2976C13.7359 10.2976 13.8692 10.1644 13.8692 10C13.8692 9.83564 13.7359 9.70239 13.5715 9.70239" stroke="white" stroke-linecap="round" stroke-linejoin="round"/>
</svg>
