<svg width="40" height="40" viewBox="0 0 40 40" fill="none" xmlns="http://www.w3.org/2000/svg">
<rect x="0.5" y="0.5" width="39" height="39" stroke="white" stroke-opacity="0.5"/>
<path fill-rule="evenodd" clip-rule="evenodd" d="M11.4385 19.8413C15.9933 17.844 19.0379 16.5531 20.5724 15.9198C24.9079 14.1174 25.8091 13.8007 26.3937 13.7764C26.5155 13.7764 26.8078 13.8007 27.0026 13.9469C27.1488 14.0687 27.1975 14.2392 27.2219 14.3609C27.2462 14.4827 27.2706 14.7506 27.2462 14.9699C27.0026 17.4299 26.004 23.4461 25.4682 26.1984C25.2489 27.3676 24.8105 27.7573 24.3964 27.806C23.4952 27.8791 22.7889 27.1971 21.912 26.6369C20.548 25.7356 19.7686 25.1754 18.429 24.2986C16.8945 23.2756 17.8931 22.7154 18.77 21.8142C18.9892 21.5706 23.0081 17.9414 23.0812 17.6004C23.0812 17.5517 23.1055 17.4056 23.0081 17.3325C22.9107 17.2594 22.7889 17.2838 22.6915 17.3081C22.5453 17.3325 20.3532 18.7939 16.0907 21.668C15.4574 22.1065 14.8972 22.3013 14.3857 22.3013C13.8255 22.3013 12.7538 21.9847 11.95 21.7167C10.9758 21.4001 10.1963 21.2296 10.2694 20.6937C10.3181 20.4258 10.7078 20.1335 11.4385 19.8413Z" fill="white"/>
</svg>
