<svg width="56" height="56" viewBox="0 0 56 56" fill="none" xmlns="http://www.w3.org/2000/svg">
<rect width="56" height="56" rx="28" fill="#221F24"/>
<path fill-rule="evenodd" clip-rule="evenodd" d="M14.85 27.9858C21.8461 24.918 26.5226 22.9352 28.8796 21.9625C35.539 19.1939 36.9232 18.7076 37.8211 18.6702C38.0082 18.6702 38.4571 18.7076 38.7564 18.9321C38.9809 19.1191 39.0557 19.381 39.0931 19.5681C39.1306 19.7551 39.168 20.1667 39.1306 20.5034C38.7564 24.282 37.2225 33.5229 36.3995 37.7504C36.0627 39.5462 35.3893 40.1448 34.7533 40.2197C33.3691 40.3319 32.2841 39.2844 30.9373 38.4239C28.8422 37.0396 27.645 36.1791 25.5873 34.8323C23.2303 33.261 24.7642 32.4005 26.1111 31.0162C26.4478 30.6421 32.6208 25.0677 32.733 24.5439C32.733 24.4691 32.7705 24.2446 32.6208 24.1324C32.4712 24.0201 32.2841 24.0575 32.1345 24.095C31.91 24.1324 28.5429 26.3771 21.9957 30.7918C21.023 31.4652 20.1625 31.7645 19.3769 31.7645C18.5164 31.7645 16.8702 31.2781 15.6356 30.8666C14.1391 30.3802 12.9419 30.1183 13.0542 29.2953C13.129 28.8837 13.7276 28.4348 14.85 27.9858Z" fill="white"/>
</svg>
