<svg width="20" height="20" viewBox="0 0 20 20" fill="none" xmlns="http://www.w3.org/2000/svg">
<path d="M13.2691 17.4453C13.0816 17.6328 12.8273 17.7382 12.562 17.7382H7.43808C7.17287 17.7382 6.91851 17.6328 6.73097 17.4453L2.55486 13.2691C2.36732 13.0816 2.26196 12.8273 2.26196 12.562V7.43808C2.26196 7.17287 2.36732 6.91851 2.55486 6.73097L6.73097 2.55486C6.91851 2.36732 7.17286 2.26196 7.43808 2.26196H12.562C12.8273 2.26196 13.0816 2.36732 13.2691 2.55486L17.4453 6.73097C17.6328 6.91851 17.7382 7.17286 17.7382 7.43808V12.562C17.7382 12.8273 17.6328 13.0816 17.4453 13.2691L13.2691 17.4453Z" stroke="#FF7500" stroke-linecap="round" stroke-linejoin="round"/>
<path d="M10 6.42847V10.2975" stroke="#FF7500" stroke-linecap="round" stroke-linejoin="round"/>
<path d="M10 13.5713C9.83564 13.5713 9.70239 13.4381 9.70239 13.2737C9.70239 13.1093 9.83564 12.9761 10 12.9761" stroke="#FF7500" stroke-linecap="round" stroke-linejoin="round"/>
<path d="M10 13.5713C10.1644 13.5713 10.2976 13.4381 10.2976 13.2737C10.2976 13.1093 10.1644 12.9761 10 12.9761" stroke="#FF7500" stroke-linecap="round" stroke-linejoin="round"/>
</svg>
